# MagicaVoxel @ Ephtracy

# group
o 

# material
mtllib Spotter_Glasses.mtl
usemtl palette

# normals
vn -1 0 0
vn 1 0 0
vn 0 0 1
vn 0 0 -1
vn 0 -1 0
vn 0 1 0

# texcoords
vt 0.00195312 0.5
vt 0.986328 0.5
vt 0.994141 0.5

# verts
v -0.5 0.7 0.3
v -0.5 0.7 0.2
v -0.5 0.8 0.2
v -0.5 0.8 -0.3
v -0.5 0.9 0.2
v -0.5 0.9 -0.3
v -0.5 1 0.3
v -0.5 1 0.2
v -0.4 0.6 0.3
v -0.4 0.6 0.2
v -0.4 0.7 0.3
v -0.4 0.7 0.2
v -0.4 1 0.3
v -0.4 1 0.2
v -0.4 1.1 0.3
v -0.4 1.1 0.2
v 0.1 0.6 0.3
v 0.1 0.6 0.2
v 0.1 0.7 0.3
v 0.1 0.7 0.2
v 0.1 1 0.3
v 0.1 1 0.2
v 0.1 1.1 0.3
v 0.1 1.1 0.2
v 0.4 0.8 0.2
v 0.4 0.8 -0.3
v 0.4 0.9 0.2
v 0.4 0.9 -0.3
v -0.4 0.8 0.2
v -0.4 0.8 -0.3
v -0.4 0.9 0.2
v -0.4 0.9 -0.3
v -0.1 0.6 0.3
v -0.1 0.6 0.2
v -0.1 0.7 0.3
v -0.1 0.7 0.2
v -0.1 1 0.3
v -0.1 1 0.2
v -0.1 1.1 0.3
v -0.1 1.1 0.2
v 0.4 0.6 0.3
v 0.4 0.6 0.2
v 0.4 0.7 0.3
v 0.4 0.7 0.2
v 0.4 1 0.3
v 0.4 1 0.2
v 0.4 1.1 0.3
v 0.4 1.1 0.2
v 0.5 0.7 0.3
v 0.5 0.7 0.2
v 0.5 0.8 0.2
v 0.5 0.8 -0.3
v 0.5 0.9 0.2
v 0.5 0.9 -0.3
v 0.5 1 0.3
v 0.5 1 0.2
v -0.5 0.7 0.3
v -0.5 1 0.3
v -0.4 0.6 0.3
v -0.4 0.7 0.3
v -0.4 1 0.3
v -0.4 1.1 0.3
v -0.3 0.8 0.3
v -0.3 0.9 0.3
v -0.2 0.8 0.3
v -0.2 0.9 0.3
v -0.1 0.6 0.3
v -0.1 0.7 0.3
v -0.1 1 0.3
v -0.1 1.1 0.3
v 0.1 0.6 0.3
v 0.1 0.7 0.3
v 0.1 1 0.3
v 0.1 1.1 0.3
v 0.2 0.8 0.3
v 0.2 0.9 0.3
v 0.3 0.8 0.3
v 0.3 0.9 0.3
v 0.4 0.6 0.3
v 0.4 0.7 0.3
v 0.4 1 0.3
v 0.4 1.1 0.3
v 0.5 0.7 0.3
v 0.5 1 0.3
v -0.5 0.7 0.2
v -0.5 0.8 0.2
v -0.5 0.9 0.2
v -0.5 1 0.2
v -0.4 0.6 0.2
v -0.4 0.7 0.2
v -0.4 0.8 0.2
v -0.4 0.9 0.2
v -0.4 1 0.2
v -0.4 1.1 0.2
v -0.3 0.8 0.2
v -0.3 0.9 0.2
v -0.2 0.8 0.2
v -0.2 0.9 0.2
v -0.1 0.6 0.2
v -0.1 0.7 0.2
v -0.1 1 0.2
v -0.1 1.1 0.2
v 0.1 0.6 0.2
v 0.1 0.7 0.2
v 0.1 1 0.2
v 0.1 1.1 0.2
v 0.2 0.8 0.2
v 0.2 0.9 0.2
v 0.3 0.8 0.2
v 0.3 0.9 0.2
v 0.4 0.6 0.2
v 0.4 0.7 0.2
v 0.4 0.8 0.2
v 0.4 0.9 0.2
v 0.4 1 0.2
v 0.4 1.1 0.2
v 0.5 0.7 0.2
v 0.5 0.8 0.2
v 0.5 0.9 0.2
v 0.5 1 0.2
v -0.5 0.8 -0.3
v -0.5 0.9 -0.3
v -0.4 0.8 -0.3
v -0.4 0.9 -0.3
v 0.4 0.8 -0.3
v 0.4 0.9 -0.3
v 0.5 0.8 -0.3
v 0.5 0.9 -0.3
v -0.4 0.6 0.3
v -0.1 0.6 0.3
v 0.1 0.6 0.3
v 0.4 0.6 0.3
v -0.4 0.6 0.2
v -0.1 0.6 0.2
v 0.1 0.6 0.2
v 0.4 0.6 0.2
v -0.5 0.7 0.3
v -0.4 0.7 0.3
v -0.1 0.7 0.3
v 0.1 0.7 0.3
v 0.4 0.7 0.3
v 0.5 0.7 0.3
v -0.5 0.7 0.2
v -0.4 0.7 0.2
v -0.1 0.7 0.2
v 0.1 0.7 0.2
v 0.4 0.7 0.2
v 0.5 0.7 0.2
v -0.5 0.8 0.2
v -0.4 0.8 0.2
v 0.4 0.8 0.2
v 0.5 0.8 0.2
v -0.5 0.8 -0.3
v -0.4 0.8 -0.3
v 0.4 0.8 -0.3
v 0.5 0.8 -0.3
v -0.5 0.9 0.2
v -0.4 0.9 0.2
v 0.4 0.9 0.2
v 0.5 0.9 0.2
v -0.5 0.9 -0.3
v -0.4 0.9 -0.3
v 0.4 0.9 -0.3
v 0.5 0.9 -0.3
v -0.5 1 0.3
v -0.4 1 0.3
v -0.1 1 0.3
v 0.1 1 0.3
v 0.4 1 0.3
v 0.5 1 0.3
v -0.5 1 0.2
v -0.4 1 0.2
v -0.1 1 0.2
v 0.1 1 0.2
v 0.4 1 0.2
v 0.5 1 0.2
v -0.4 1.1 0.3
v -0.1 1.1 0.3
v 0.1 1.1 0.3
v 0.4 1.1 0.3
v -0.4 1.1 0.2
v -0.1 1.1 0.2
v 0.1 1.1 0.2
v 0.4 1.1 0.2

# faces
f 3/2/1 2/2/1 1/2/1
f 5/2/1 3/2/1 1/2/1
f 5/2/1 4/2/1 3/2/1
f 6/2/1 4/2/1 5/2/1
f 7/2/1 5/2/1 1/2/1
f 8/2/1 5/2/1 7/2/1
f 11/2/1 10/2/1 9/2/1
f 12/2/1 10/2/1 11/2/1
f 15/2/1 14/2/1 13/2/1
f 16/2/1 14/2/1 15/2/1
f 19/2/1 18/2/1 17/2/1
f 20/2/1 18/2/1 19/2/1
f 23/2/1 22/2/1 21/2/1
f 24/2/1 22/2/1 23/2/1
f 27/2/1 26/2/1 25/2/1
f 28/2/1 26/2/1 27/2/1
f 29/2/2 30/2/2 31/2/2
f 31/2/2 30/2/2 32/2/2
f 33/2/2 34/2/2 35/2/2
f 35/2/2 34/2/2 36/2/2
f 37/2/2 38/2/2 39/2/2
f 39/2/2 38/2/2 40/2/2
f 41/2/2 42/2/2 43/2/2
f 43/2/2 42/2/2 44/2/2
f 45/2/2 46/2/2 47/2/2
f 47/2/2 46/2/2 48/2/2
f 49/2/2 50/2/2 51/2/2
f 49/2/2 51/2/2 53/2/2
f 51/2/2 52/2/2 53/2/2
f 53/2/2 52/2/2 54/2/2
f 49/2/2 53/2/2 55/2/2
f 55/2/2 53/2/2 56/2/2
f 60/2/3 58/2/3 57/2/3
f 61/2/3 58/2/3 60/2/3
f 63/1/3 61/1/3 60/1/3
f 64/1/3 61/1/3 63/1/3
f 65/1/3 63/1/3 60/1/3
f 65/3/3 64/3/3 63/3/3
f 66/1/3 61/1/3 64/1/3
f 66/3/3 64/3/3 65/3/3
f 67/2/3 60/2/3 59/2/3
f 68/1/3 65/1/3 60/1/3
f 68/2/3 60/2/3 67/2/3
f 68/1/3 66/1/3 65/1/3
f 69/1/3 61/1/3 66/1/3
f 69/1/3 66/1/3 68/1/3
f 69/2/3 62/2/3 61/2/3
f 70/2/3 62/2/3 69/2/3
f 72/2/3 69/2/3 68/2/3
f 73/2/3 69/2/3 72/2/3
f 75/1/3 73/1/3 72/1/3
f 76/1/3 73/1/3 75/1/3
f 77/1/3 75/1/3 72/1/3
f 77/3/3 76/3/3 75/3/3
f 78/1/3 73/1/3 76/1/3
f 78/3/3 76/3/3 77/3/3
f 79/2/3 72/2/3 71/2/3
f 80/1/3 77/1/3 72/1/3
f 80/2/3 72/2/3 79/2/3
f 80/1/3 78/1/3 77/1/3
f 81/1/3 73/1/3 78/1/3
f 81/1/3 78/1/3 80/1/3
f 81/2/3 74/2/3 73/2/3
f 82/2/3 74/2/3 81/2/3
f 83/2/3 81/2/3 80/2/3
f 84/2/3 81/2/3 83/2/3
f 85/2/4 86/2/4 90/2/4
f 90/2/4 86/2/4 91/2/4
f 87/2/4 88/2/4 92/2/4
f 92/2/4 88/2/4 93/2/4
f 90/1/4 91/1/4 95/1/4
f 91/1/4 92/1/4 95/1/4
f 92/1/4 93/1/4 95/1/4
f 95/1/4 93/1/4 96/1/4
f 90/1/4 95/1/4 97/1/4
f 95/3/4 96/3/4 97/3/4
f 96/1/4 93/1/4 98/1/4
f 97/3/4 96/3/4 98/3/4
f 89/2/4 90/2/4 99/2/4
f 90/1/4 97/1/4 100/1/4
f 99/2/4 90/2/4 100/2/4
f 97/1/4 98/1/4 100/1/4
f 93/2/4 94/2/4 101/2/4
f 100/1/4 98/1/4 101/1/4
f 98/1/4 93/1/4 101/1/4
f 101/2/4 94/2/4 102/2/4
f 100/2/4 101/2/4 104/2/4
f 104/2/4 101/2/4 105/2/4
f 104/1/4 105/1/4 107/1/4
f 107/1/4 105/1/4 108/1/4
f 104/1/4 107/1/4 109/1/4
f 107/3/4 108/3/4 109/3/4
f 108/1/4 105/1/4 110/1/4
f 109/3/4 108/3/4 110/3/4
f 103/2/4 104/2/4 111/2/4
f 104/1/4 109/1/4 112/1/4
f 111/2/4 104/2/4 112/2/4
f 109/1/4 110/1/4 112/1/4
f 112/1/4 110/1/4 113/1/4
f 110/1/4 105/1/4 114/1/4
f 113/1/4 110/1/4 114/1/4
f 105/2/4 106/2/4 115/2/4
f 114/1/4 105/1/4 115/1/4
f 115/2/4 106/2/4 116/2/4
f 112/2/4 113/2/4 117/2/4
f 117/2/4 113/2/4 118/2/4
f 114/2/4 115/2/4 119/2/4
f 119/2/4 115/2/4 120/2/4
f 121/2/4 122/2/4 123/2/4
f 123/2/4 122/2/4 124/2/4
f 125/2/4 126/2/4 127/2/4
f 127/2/4 126/2/4 128/2/4
f 133/2/5 130/2/5 129/2/5
f 134/2/5 130/2/5 133/2/5
f 135/2/5 132/2/5 131/2/5
f 136/2/5 132/2/5 135/2/5
f 143/2/5 138/2/5 137/2/5
f 144/2/5 138/2/5 143/2/5
f 145/2/5 140/2/5 139/2/5
f 146/2/5 140/2/5 145/2/5
f 147/2/5 142/2/5 141/2/5
f 148/2/5 142/2/5 147/2/5
f 153/2/5 150/2/5 149/2/5
f 154/2/5 150/2/5 153/2/5
f 155/2/5 152/2/5 151/2/5
f 156/2/5 152/2/5 155/2/5
f 157/2/6 158/2/6 161/2/6
f 161/2/6 158/2/6 162/2/6
f 159/2/6 160/2/6 163/2/6
f 163/2/6 160/2/6 164/2/6
f 165/2/6 166/2/6 171/2/6
f 171/2/6 166/2/6 172/2/6
f 167/2/6 168/2/6 173/2/6
f 173/2/6 168/2/6 174/2/6
f 169/2/6 170/2/6 175/2/6
f 175/2/6 170/2/6 176/2/6
f 177/2/6 178/2/6 181/2/6
f 181/2/6 178/2/6 182/2/6
f 179/2/6 180/2/6 183/2/6
f 183/2/6 180/2/6 184/2/6
