# ProBuilder 5.2.2
# https://unity3d.com/unity/features/worldbuilding/probuilder
# 2024-05-01 10:27:07 AM

mtllib ./RamMeshBig5.mtl
o RamMeshBig5

g RamMesh
v -0.2 0.3666667 -0.1
v -0.2 0.6 -0.1
v -0.2 0.3666667 -0.2
v 0.2 0.6 0.4066667
v 0.2 0.6 0.1
v 0.1 0.6 0.1
v 0.1 0.6 -0.1
v -0.1 0.6 0.1
v -0.1 0.6 -0.1
v -0.2 0.2 0.3
v -0.3 0.1 0.3
v -0.3 0.2 0.3
v -0.1 0.2 0.3
v -0.1 0.3 0.3
v -0.1 0.4 0.3
v -0.2 0.4 0.3
v 0.1 0.2 0.3
v 0.2 0.2 0.3
v 0.1 0.3 0.3
v 0.3 0.2 0.3
v 0.3 0.1 0.3
v 0.2 0.4 0.3
v 0.1 0.4 0.3
v 0.1 0.2 -0.2
v 0.1 0.3 -0.2
v 0.2 0.2 -0.2
v 0.2 0.4 -0.2
v 0.1 0.4 -0.2
v 0.2 0.3666667 -0.2
v 0.1 0.5 -0.2
v 0.1 0.4 -0.3
v 0.2 0.4 -0.3
v -0.1 0.2 -0.2
v -0.2 0.2 -0.2
v -0.1 0.3 -0.2
v -0.1 0.4 -0.2
v -0.2 0.4 -0.2
v -0.1 0.5 -0.2
v -0.2 0.4 -0.3
v -0.1 0.4 -0.3
v 0.1 0.2 -0.3
v 0.2 0.2 -0.3
v 0.1 0.3 -0.3
v -0.1 0.3 -0.3
v -0.2 0.2 -0.3
v -0.1 0.2 -0.3
v -0.1 0.1 -0.2
v -0.1 0.1 -0.3
v -0.2 0.3666667 0.4066667
v -0.2 0.6 0.4066667
v -0.2 0.3666667 0.2
v -0.2 0.3666667 0.09999999
v -0.2 0.6 0.1
v 0.2 0.3666667 0.09999999
v 0.2 0.3666667 0.2
v 0.2 0.3666667 0.4066667
v 0.2 0.6 -0.1
v 0.2 0.3666667 -0.1
v 0.2 0.6 -0.38
v 0.2 0.3666667 -0.38
v 0.3 0.1 0.2
v 0.2 0.1 0.2
v 0.1 0.1 0.2
v 0.2 0.1 -0.1
v 0.2 0.1 -0.2
v 0.3 0.1 -0.1
v 0.3 0.1 -0.2
v 0.2 0.1 -0.4
v -0.1 0.1 0.2
v 0.1 0.1 -0.1
v -0.2 0.1 0.2
v -0.3 0.1 0.2
v -0.1 0.1 -0.1
v 0.1 0.1 -0.2
v 0.1 0.1 -0.3
v -0.2 0.1 -0.4
v -0.2 0.1 -0.1
v -0.2 0.1 -0.2
v -0.3 0.1 -0.1
v -0.3 0.1 -0.2
v 0.1 0.3 0.4
v -0.1 0.3 0.4
v 0.1 0.3 0.2
v 0.1 0.3 -0.4
v -0.1 0.3 0.2
v -0.1 0.3 -0.4
v 0.3 0.3666667 -0.38
v 0.3 0.3666667 -0.1833333
v 0.3 0.3666667 0.01333334
v 0.3 0.3666667 0.21
v 0.3 0.3666667 0.4066667
v -0.3 0.3666667 0.4066667
v -0.3 0.3666667 0.21
v -0.3 0.3666667 0.01333334
v -0.3 0.3666667 -0.1833333
v -0.2 0.3666667 -0.38
v -0.3 0.3666667 -0.38
v -0.1 0.5 0.4
v 0.1 0.5 0.2
v 0.1 0.5 0.4
v 0.1 0.5 0.1
v 0.1 0.5 -0.1
v -0.1 0.5 0.2
v -0.1 0.5 -0.1
v -0.1 0.5 0.1
v 0.1 0.5 -0.4
v -0.1 0.5 -0.4
v -0.3 0.425 0.4066667
v -0.3 0.4833333 0.4066667
v -0.3 0.5416667 0.4066667
v -0.3 0.6 0.4066667
v -0.3 0.6 -0.38
v -0.3 0.5416667 -0.38
v -0.2 0.6 -0.38
v -0.3 0.4833333 -0.38
v -0.3 0.425 -0.38
v -0.3 0.6 -0.1833333
v -0.3 0.6 0.01333334
v -0.3 0.6 0.21
v 0.3 0.425 0.4066667
v 0.3 0.4833333 0.4066667
v 0.3 0.5416667 0.4066667
v 0.3 0.6 0.4066667
v 0.3 0.5416667 -0.38
v 0.3 0.6 -0.38
v 0.3 0.4833333 -0.38
v 0.3 0.425 -0.38
v 0.3 0.6 -0.1833333
v 0.3 0.6 0.01333334
v 0.3 0.6 0.21
v 0.1 0.4 0.2
v 0.2 0.4 0.2
v 0.2 0.2 0.2
v 0.1 0.2 0.2
v 0.3 0.2 0.2
v -0.1 0.2 0.2
v -0.2 0.2 0.2
v -0.2 0.4 0.2
v -0.1 0.4 0.2
v -0.3 0.2 0.2
v -0.2 0.4 0.1
v -0.1 0.4 0.1
v -0.1 0.4 -0.1
v -0.2 0.4 -0.1
v 0.2 0.4 -0.1
v 0.1 0.4 -0.1
v 0.1 0.4 0.1
v 0.2 0.4 0.1
v 0.2 0.2 -0.4
v -0.2 0.2 -0.4
v 0.1259963 0.7 0.250745
v 2.235174E-08 0.7 0.250745
v 0.06299815 0.7 0.250745
v 0.2 0.601 0.3
v -0.2 0.601 0.3
v -0.0629981 0.7 0.250745
v -0.1259962 0.7 0.250745
v 0.2 0.601 -0.3
v 0.1259963 0.7 -0.1253725
v 0.1259963 0.7 -0.250745
v 0.1259963 0.7 0
v 0.1259963 0.7 0.1253725
v -0.1259962 0.7 0
v -0.1259962 0.7 0.1253725
v -0.2 0.601 -0.3
v -0.1259962 0.7 -0.1253725
v -0.1259962 0.7 -0.250745
v -0.0629981 0.7 -0.250745
v 2.235174E-08 0.7 -0.250745
v 0.06299815 0.7 -0.250745
v 0.3 0.1 0.4
v 0.4 0.2 0.4
v 0.4 0.1 0.4
v 0.3 0.2 0.4
v -0.4 0.1 0.4
v -0.3 0.2 0.4
v -0.3 0.1 0.4
v -0.4 0.2 0.4
v 0.3 0 0.3
v 0.4727273 0.09999999 0.3
v 0.4 0 0.3
v -0.4 0 0.3
v -0.3 0 0.3
v -0.4727272 0.09999999 0.3
v 0.4 0.3 0.3
v 0.4727273 0.2 0.3
v 0.3 0.3 0.3
v -0.4727272 0.2 0.3
v -0.3 0.3 0.3
v -0.4 0.3 0.3
v 0.3 0.1 0
v 0.4 0.2 0
v 0.4 0.1 0
v 0.3 0.2 0
v -0.4 0.1 0
v -0.3 0.2 0
v -0.3 0.1 0
v -0.4 0.2 0
v 0.3 0 -0.1
v 0.4727273 0.09999999 -0.1
v 0.4 0 -0.1
v -0.4 0 -0.1
v -0.3 0 -0.1
v -0.4727272 0.09999999 -0.1
v 0.3 0.2 -0.1
v 0.2 0.2 -0.1
v 0.1 0.2 -0.1
v -0.1 0.2 -0.1
v -0.2 0.2 -0.1
v -0.3 0.2 -0.1
v 0.4 0.3 -0.1
v 0.4727273 0.2 -0.1
v 0.3 0.3 -0.1
v -0.4727272 0.2 -0.1
v -0.3 0.3 -0.1
v -0.4 0.3 -0.1
v 0.4 0 0.2
v 0.4727273 0.09999999 0.2
v 0.3 0 0.2
v -0.4727272 0.09999999 0.2
v -0.3 0 0.2
v -0.4 0 0.2
v 0.3 0.3 0.2
v 0.4727273 0.2 0.2
v 0.4 0.3 0.2
v -0.4 0.3 0.2
v -0.3 0.3 0.2
v -0.4727272 0.2 0.2
v 0.3 0.2 0.1
v 0.4 0.1 0.1
v 0.4 0.2 0.1
v 0.3 0.1 0.1
v -0.4 0.2 0.1
v -0.3 0.1 0.1
v -0.3 0.2 0.1
v -0.4 0.1 0.1
v 0.4 0 -0.2
v 0.4727273 0.09999999 -0.2
v 0.3 0 -0.2
v -0.4727272 0.09999999 -0.2
v -0.3 0 -0.2
v -0.4 0 -0.2
v 0.3 0.2 -0.2
v -0.3 0.2 -0.2
v 0.3 0.3 -0.2
v 0.4727273 0.2 -0.2
v 0.4 0.3 -0.2
v -0.4 0.3 -0.2
v -0.3 0.3 -0.2
v -0.4727272 0.2 -0.2
v 0.3 0.2 -0.3
v 0.4 0.1 -0.3
v 0.4 0.2 -0.3
v 0.3 0.1 -0.3
v -0.4 0.2 -0.3
v -0.3 0.1 -0.3
v -0.3 0.2 -0.3
v -0.4 0.1 -0.3
v -0.3 0.425 0.21
v -0.3 0.425 0.01333334
v -0.3 0.425 -0.1833333
v -0.3 0.4833333 -0.1833333
v -0.3 0.5416667 -0.1833333
v -0.3 0.4833333 0.01333334
v -0.3 0.5416667 0.01333334
v -0.3 0.4833333 0.21
v -0.3 0.5416667 0.21
v 0.06299815 0.7 0.1253725
v 0.06299815 0.7 0
v 0.06299815 0.7 -0.1253725
v -0.0629981 0.7 0.1253725
v 2.235174E-08 0.7 0.1253725
v -0.0629981 0.7 0
v 2.235174E-08 0.7 0
v -0.0629981 0.7 -0.1253725
v 2.235174E-08 0.7 -0.1253725
v 0.3 0.425 -0.1833333
v 0.3 0.425 0.01333334
v 0.3 0.425 0.21
v 0.3 0.4833333 0.21
v 0.3 0.5416667 0.21
v 0.3 0.5416667 0.01333334
v 0.3 0.4833333 0.01333334
v 0.3 0.5416667 -0.1833333
v 0.3 0.4833333 -0.1833333

vt 0.376953 0.5
vt 0.373047 0.5
vt 0.8435981 0.2796609
vt 0.537109 0.5
vt 0.8437439 0.2794786
vt 0.8440378 0.2290501
vt 0.8440968 0.2289325
vt 0.8437437 0.2507584
vt 0.8437437 0.2500094
vt 0.8354428 0.5
vt 0.8826064 0.489178

vn 1 0 0
vn 0 -0.9999561 0.009373644
vn 0 -1 0
vn 0 0 1
vn 0 1 0
vn 0 0 -1
vn -1 0 0
vn 0.4961389 -0.8682431 0
vn 0.2290394 -0.9734172 0
vn -0.4961389 -0.8682431 0
vn -0.2290394 -0.9734172 0
vn 0.2940858 0.955779 0
vn 0.2169304 0.9761871 0
vn -0.2940858 0.955779 0
vn -0.8 0.6000001 0
vn 0 -0.9999219 -0.01249691
vn 0 -0.006247011 -0.9999804
vn 0 0 0
vn 0 0.4454404 0.8953116
vn 0.8009554 0.598724 0
vn -0.800955 0.5987245 0
vn 0 0.4454404 -0.8953116
vn 0 0.9999561 0.009374467
vn 0 0.9999219 -0.01249887
vn 0.808736 0 0.5881718
vn 0.9530342 -0.2141562 0.2141562
vn 0.9530342 0.2141562 0.2141562
vn 0.808736 -0.5881718 0
vn 0.9530342 -0.2141562 -0.2141562
vn 0.8087361 0.5881718 0
vn 0.9530342 0.2141562 -0.2141562
vn 0.808736 0 -0.5881718
vn -0.8087363 0 0.5881714
vn -0.9530343 0.214156 0.214156
vn -0.9530343 -0.214156 0.214156
vn -0.8087364 0.5881712 0
vn -0.9530343 0.2141559 -0.214156
vn -0.8087364 -0.5881714 0
vn -0.9530343 -0.214156 -0.214156
vn -0.8087364 0 -0.5881713

usemtl palette
f 3/1/1 2/1/1 1/1/1
f 6/1/3 5/1/3 4/1/2
f 12/2/4 11/2/4 10/2/4
f 13/2/4 11/2/4 17/2/4
f 18/2/4 17/2/4 11/2/4
f 23/2/4 19/2/4 22/2/4
f 28/2/4 25/2/4 27/2/4
f 27/2/5 30/2/5 29/2/4
f 30/2/5 27/2/5 28/2/6
f 35/2/4 34/2/4 33/2/4
f 3/2/5 36/2/5 37/2/4
f 36/2/5 3/2/5 38/2/6
f 31/2/6 32/2/6 43/2/6
f 46/2/6 45/2/6 44/2/6
f 48/2/1 33/2/1 47/2/1
f 44/2/1 35/2/1 46/2/1
f 51/3/1 50/3/1 49/3/1
f 55/3/7 5/3/7 54/3/7
f 58/3/7 57/3/7 29/3/7
f 62/2/3 61/2/3 21/2/3
f 63/2/3 62/2/3 21/2/3
f 63/2/3 64/2/3 62/2/3
f 63/2/3 65/2/3 64/2/3
f 71/2/3 73/2/3 69/2/3
f 71/2/3 47/2/3 73/2/3
f 77/2/3 76/2/3 48/2/3
f 76/2/3 77/2/3 78/2/3
f 82/4/3 19/4/3 81/4/3
f 82/4/3 83/4/3 19/4/3
f 82/4/3 25/4/3 83/4/3
f 82/4/3 43/4/3 25/4/3
f 60/1/3 87/1/3 29/1/8
f 87/1/3 58/1/3 29/1/8
f 58/1/3 87/1/3 54/1/3
f 55/1/9 88/1/3 89/1/3
f 90/1/3 55/1/9 89/1/3
f 92/1/3 51/1/10 49/1/3
f 92/1/3 52/1/3 51/1/10
f 92/1/3 1/1/3 52/1/3
f 3/1/11 93/1/3 94/1/3
f 3/1/11 94/1/3 95/1/3
f 8/3/3 50/3/2 53/3/3
f 100/4/5 99/4/12 98/4/5
f 99/4/12 101/4/5 98/4/5
f 101/4/5 102/4/5 98/4/5
f 103/4/14 30/4/13 104/4/5
f 103/4/14 104/4/5 105/4/5
f 104/4/5 107/4/5 38/4/15
f 49/3/4 108/3/4 92/3/4
f 49/3/4 109/3/4 108/3/4
f 109/3/4 49/3/4 110/3/4
f 114/3/6 113/3/6 112/3/6
f 57/3/3 9/3/3 59/5/16
f 9/3/3 57/3/3 7/3/3
f 117/3/5 114/5/5 112/5/5
f 120/3/4 56/3/4 91/3/4
f 121/3/4 56/3/4 120/3/4
f 123/3/4 4/3/4 122/3/4
f 59/3/6 125/3/6 124/3/6
f 124/3/6 126/3/6 59/3/6
f 127/3/5 87/3/6 126/3/6
f 59/5/5 128/3/5 125/5/5
f 131/2/5 55/2/5 99/2/4
f 55/2/5 131/2/5 132/2/6
f 133/2/6 134/2/6 83/2/6
f 85/2/6 138/2/6 139/2/6
f 103/2/5 138/2/5 139/2/4
f 138/2/5 103/2/5 51/2/6
f 52/2/18 142/2/18 141/2/4
f 142/2/18 52/2/18 105/2/6
f 104/2/5 144/2/5 143/2/4
f 144/2/5 104/2/5 1/2/6
f 58/2/5 146/2/5 145/2/6
f 146/2/5 58/2/5 102/2/4
f 101/2/18 148/2/18 147/2/6
f 148/2/18 101/2/18 54/2/4
f 65/2/1 42/2/1 26/2/1
f 45/2/7 78/2/7 34/2/7
f 153/6/5 152/6/19 151/6/19
f 154/6/19 151/6/19 152/6/19
f 155/6/19 154/6/19 152/6/19
f 154/6/20 158/7/20 161/7/20
f 164/6/5 163/7/21 157/6/21
f 155/6/21 157/6/21 163/7/21
f 165/7/21 155/6/21 163/7/21
f 158/7/22 165/7/22 169/7/22
f 142/4/7 85/4/7 139/4/7
f 85/4/7 142/4/7 143/4/7
f 7/1/3 6/1/3 8/1/3
f 8/1/3 9/1/3 7/1/3
f 10/2/4 11/2/4 13/2/4
f 13/2/4 14/2/4 10/2/4
f 10/2/4 14/2/4 15/2/4
f 15/2/4 16/2/4 10/2/4
f 22/2/4 19/2/4 17/2/4
f 17/2/4 18/2/4 22/2/4
f 20/2/4 18/2/4 11/2/4
f 11/2/4 21/2/4 20/2/4
f 27/2/4 25/2/4 24/2/4
f 24/2/4 26/2/4 27/2/4
f 31/2/5 28/2/5 27/2/5
f 27/2/5 32/2/5 31/2/5
f 34/2/4 35/2/4 36/2/4
f 36/2/4 37/2/4 34/2/4
f 39/2/5 37/2/5 36/2/5
f 36/2/5 40/2/5 39/2/5
f 32/2/6 42/2/6 41/2/6
f 41/2/6 43/2/6 32/2/6
f 45/2/6 39/2/6 40/2/6
f 40/2/6 44/2/6 45/2/6
f 35/2/1 33/2/1 48/2/1
f 48/2/1 46/2/1 35/2/1
f 50/3/1 51/3/1 52/3/1
f 52/3/1 53/3/1 50/3/1
f 4/3/7 5/3/7 55/3/7
f 55/3/7 56/3/7 4/3/7
f 29/3/7 57/3/7 59/3/7
f 59/3/7 60/3/7 29/3/7
f 66/2/3 64/2/3 65/2/3
f 65/2/3 67/2/3 66/2/3
f 68/2/3 65/2/3 63/2/3
f 63/2/3 70/2/3 68/2/3
f 69/2/3 63/2/3 21/2/3
f 21/2/3 71/2/3 69/2/3
f 71/2/3 21/2/3 11/2/3
f 11/2/3 72/2/3 71/2/3
f 74/2/3 70/2/3 73/2/3
f 73/2/3 47/2/3 74/2/3
f 68/2/3 70/2/3 74/2/3
f 74/2/3 75/2/3 68/2/3
f 48/2/3 47/2/3 71/2/3
f 71/2/3 77/2/3 48/2/3
f 68/2/3 75/2/3 48/2/3
f 48/2/3 76/2/3 68/2/3
f 78/2/3 77/2/3 79/2/3
f 79/2/3 80/2/3 78/2/3
f 84/4/3 43/4/3 82/4/3
f 82/4/3 14/4/3 84/4/3
f 84/4/3 14/4/3 85/4/3
f 85/4/3 35/4/3 84/4/3
f 84/4/3 35/4/3 44/4/3
f 44/4/3 86/4/3 84/4/3
f 55/1/9 54/1/3 87/1/3
f 87/1/3 88/1/3 55/1/9
f 55/1/9 90/1/3 91/1/3
f 91/1/3 56/1/3 55/1/9
f 3/1/11 1/1/3 92/1/3
f 92/1/3 93/1/3 3/1/11
f 96/1/3 3/1/11 95/1/3
f 95/1/3 97/1/3 96/1/3
f 50/3/2 8/3/3 6/3/3
f 6/3/3 4/3/2 50/3/2
f 98/4/5 102/4/5 30/4/13
f 30/4/13 103/4/14 98/4/5
f 107/4/5 104/4/5 30/4/13
f 30/4/13 106/4/5 107/4/5
f 111/3/4 110/3/4 49/3/4
f 49/3/4 50/3/4 111/3/4
f 115/3/6 113/3/6 114/3/6
f 114/3/6 96/3/6 115/3/6
f 116/3/6 115/3/6 96/3/6
f 96/3/6 97/3/6 116/3/6
f 2/3/3 114/3/17 59/5/16
f 59/5/16 9/3/3 2/3/3
f 114/5/5 117/3/5 118/3/5
f 118/3/5 50/3/5 114/5/5
f 50/3/5 118/3/5 119/3/5
f 119/3/5 111/3/5 50/3/5
f 4/3/4 56/3/4 121/3/4
f 121/3/4 122/3/4 4/3/4
f 60/3/6 59/3/6 126/3/6
f 126/3/6 87/3/6 60/3/6
f 129/3/5 128/3/5 59/5/5
f 59/5/5 4/3/5 129/3/5
f 130/3/5 129/3/5 4/3/5
f 4/3/5 123/3/5 130/3/5
f 131/2/5 23/2/5 22/2/5
f 22/2/5 132/2/5 131/2/5
f 131/2/6 132/2/6 133/2/6
f 133/2/6 83/2/6 131/2/6
f 133/2/6 135/2/6 61/2/6
f 61/2/6 62/2/6 133/2/6
f 136/2/6 134/2/6 63/2/6
f 63/2/6 69/2/6 136/2/6
f 85/2/6 136/2/6 137/2/6
f 137/2/6 138/2/6 85/2/6
f 140/2/6 137/2/6 71/2/6
f 71/2/6 72/2/6 140/2/6
f 15/2/5 139/2/5 138/2/5
f 138/2/5 16/2/5 15/2/5
f 104/2/6 1/2/6 2/2/6
f 2/2/6 9/2/6 104/2/6
f 104/2/5 38/2/15 3/2/11
f 3/2/11 1/2/3 104/2/5
f 52/2/3 1/2/3 104/2/5
f 104/2/5 105/2/5 52/2/3
f 103/2/14 105/2/5 52/2/3
f 52/2/3 51/2/10 103/2/14
f 101/2/4 54/2/4 5/2/4
f 5/2/4 6/2/4 101/2/4
f 101/2/5 99/2/12 55/2/9
f 55/2/9 54/2/3 101/2/5
f 58/2/3 54/2/3 101/2/5
f 101/2/5 102/2/5 58/2/3
f 30/2/13 102/2/5 58/2/3
f 58/2/3 29/2/8 30/2/13
f 68/2/1 149/2/1 42/2/1
f 42/2/1 65/2/1 68/2/1
f 26/2/1 42/2/1 32/2/1
f 32/2/1 27/2/1 26/2/1
f 75/2/7 74/2/7 24/2/7
f 24/2/7 41/2/7 75/2/7
f 43/2/7 41/2/7 24/2/7
f 24/2/7 25/2/7 43/2/7
f 45/2/7 150/2/7 76/2/7
f 76/2/7 78/2/7 45/2/7
f 45/2/7 34/2/7 37/2/7
f 37/2/7 39/2/7 45/2/7
f 41/2/5 42/2/5 149/2/5
f 149/2/5 46/2/5 41/2/5
f 46/2/5 149/2/5 150/2/5
f 150/2/5 45/2/5 46/2/5
f 155/6/19 152/6/19 156/6/19
f 156/6/19 157/6/19 155/6/19
f 158/7/20 160/7/20 159/7/20
f 159/7/20 161/7/20 158/7/20
f 154/6/20 161/7/20 162/6/20
f 162/6/20 151/6/20 154/6/20
f 165/7/21 163/7/21 166/7/21
f 166/7/21 167/7/21 165/7/21
f 165/7/22 167/7/22 168/7/22
f 168/7/22 169/7/22 165/7/22
f 158/7/22 169/7/22 170/7/22
f 170/7/22 160/7/22 158/7/22
f 171/4/4 173/4/4 172/4/4
f 172/4/4 174/4/4 171/4/4
f 175/4/4 177/4/4 176/4/4
f 176/4/4 178/4/4 175/4/4
f 82/4/4 81/4/4 100/4/4
f 100/4/4 98/4/4 82/4/4
f 179/4/4 181/4/4 180/4/4
f 180/4/4 21/4/4 179/4/4
f 182/4/4 183/4/4 11/4/4
f 11/4/4 184/4/4 182/4/4
f 20/4/4 186/4/4 185/4/4
f 185/4/4 187/4/4 20/4/4
f 188/4/4 12/4/4 189/4/4
f 189/4/4 190/4/4 188/4/4
f 50/8/2 4/8/2 154/9/23
f 154/9/23 155/9/23 50/8/2
f 52/2/4 105/2/4 8/2/4
f 8/2/4 53/2/4 52/2/4
f 191/4/4 193/4/4 192/4/4
f 192/4/4 194/4/4 191/4/4
f 195/4/4 197/4/4 196/4/4
f 196/4/4 198/4/4 195/4/4
f 199/4/4 201/4/4 200/4/4
f 200/4/4 66/4/4 199/4/4
f 202/4/4 203/4/4 79/4/4
f 79/4/4 204/4/4 202/4/4
f 64/2/4 66/2/4 205/2/4
f 205/2/4 206/2/4 64/2/4
f 73/2/4 70/2/4 207/2/4
f 207/2/4 208/2/4 73/2/4
f 79/2/4 77/2/4 209/2/4
f 209/2/4 210/2/4 79/2/4
f 205/4/4 212/4/4 211/4/4
f 211/4/4 213/4/4 205/4/4
f 214/4/4 210/4/4 215/4/4
f 215/4/4 216/4/4 214/4/4
f 48/2/4 75/2/4 41/2/4
f 41/2/4 46/2/4 48/2/4
f 61/4/6 218/4/6 217/4/6
f 217/4/6 219/4/6 61/4/6
f 220/4/6 72/4/6 221/4/6
f 221/4/6 222/4/6 220/4/6
f 223/4/6 225/4/6 224/4/6
f 224/4/6 135/4/6 223/4/6
f 226/4/6 227/4/6 140/4/6
f 140/4/6 228/4/6 226/4/6
f 229/4/6 231/4/6 230/4/6
f 230/4/6 232/4/6 229/4/6
f 233/4/6 235/4/6 234/4/6
f 234/4/6 236/4/6 233/4/6
f 7/2/6 57/2/6 58/2/6
f 58/2/6 102/2/6 7/2/6
f 67/4/6 238/4/6 237/4/6
f 237/4/6 239/4/6 67/4/6
f 240/4/6 80/4/6 241/4/6
f 241/4/6 242/4/6 240/4/6
f 26/2/6 243/2/6 67/2/6
f 67/2/6 65/2/6 26/2/6
f 33/2/6 24/2/6 74/2/6
f 74/2/6 47/2/6 33/2/6
f 244/2/6 34/2/6 78/2/6
f 78/2/6 80/2/6 244/2/6
f 245/4/6 247/4/6 246/4/6
f 246/4/6 243/4/6 245/4/6
f 248/4/6 249/4/6 244/4/6
f 244/4/6 250/4/6 248/4/6
f 251/4/6 253/4/6 252/4/6
f 252/4/6 254/4/6 251/4/6
f 255/4/6 257/4/6 256/4/6
f 256/4/6 258/4/6 255/4/6
f 165/9/24 158/9/24 59/8/16
f 59/8/16 114/8/17 165/9/24
f 150/2/6 149/2/6 68/2/6
f 68/2/6 76/2/6 150/2/6
f 107/4/6 106/4/6 84/4/6
f 84/4/6 86/4/6 107/4/6
f 172/4/25 173/4/25 180/4/26
f 180/4/26 186/4/27 172/4/25
f 180/4/26 181/4/28 217/4/28
f 217/4/28 218/4/29 180/4/26
f 185/4/30 186/4/27 224/4/31
f 224/4/31 225/4/30 185/4/30
f 224/4/31 218/4/29 230/4/32
f 230/4/32 231/4/32 224/4/31
f 186/10/27 180/10/26 218/10/29
f 218/10/29 224/10/31 186/10/27
f 192/4/25 193/4/25 200/4/26
f 200/4/26 212/4/27 192/4/25
f 200/4/26 201/4/28 237/4/28
f 237/4/28 238/4/29 200/4/26
f 211/4/30 212/4/27 246/4/31
f 246/4/31 247/4/30 211/4/30
f 246/4/31 238/4/29 252/4/32
f 252/4/32 253/4/32 246/4/31
f 212/10/27 200/10/26 238/10/29
f 238/10/29 246/10/31 212/10/27
f 22/2/1 18/2/1 133/2/1
f 133/2/1 132/2/1 22/2/1
f 133/2/1 62/2/1 64/2/1
f 64/2/1 206/2/1 133/2/1
f 55/2/7 132/2/7 148/2/7
f 148/2/7 54/2/7 55/2/7
f 58/2/7 145/2/7 27/2/7
f 27/2/7 29/2/7 58/2/7
f 154/9/1 4/8/1 59/8/1
f 59/8/1 158/9/1 154/9/1
f 100/4/1 81/4/1 19/4/1
f 19/4/1 23/4/1 100/4/1
f 100/4/1 23/4/1 131/4/1
f 131/4/1 99/4/1 100/4/1
f 147/4/1 131/4/1 83/4/1
f 83/4/1 146/4/1 147/4/1
f 146/4/1 83/4/1 25/4/1
f 25/4/1 28/4/1 146/4/1
f 101/4/1 147/4/1 146/4/1
f 146/4/1 102/4/1 101/4/1
f 30/4/1 28/4/1 31/4/1
f 31/4/1 106/4/1 30/4/1
f 106/4/1 31/4/1 43/4/1
f 43/4/1 84/4/1 106/4/1
f 14/2/1 13/2/1 136/2/1
f 136/2/1 85/2/1 14/2/1
f 136/2/1 69/2/1 73/2/1
f 73/2/1 208/2/1 136/2/1
f 8/2/1 105/2/1 104/2/1
f 104/2/1 9/2/1 8/2/1
f 2/3/1 3/3/1 96/3/1
f 96/3/1 114/3/1 2/3/1
f 176/4/1 177/4/1 11/4/1
f 11/4/1 12/4/1 176/4/1
f 11/4/1 183/4/1 221/4/1
f 221/4/1 72/4/1 11/4/1
f 189/4/1 12/4/1 140/4/1
f 140/4/1 227/4/1 189/4/1
f 140/4/1 72/4/1 234/4/1
f 234/4/1 235/4/1 140/4/1
f 196/4/1 197/4/1 79/4/1
f 79/4/1 210/4/1 196/4/1
f 79/4/1 203/4/1 241/4/1
f 241/4/1 80/4/1 79/4/1
f 215/4/1 210/4/1 244/4/1
f 244/4/1 249/4/1 215/4/1
f 244/4/1 80/4/1 256/4/1
f 256/4/1 257/4/1 244/4/1
f 171/4/7 174/4/7 20/4/7
f 20/4/7 21/4/7 171/4/7
f 20/4/7 187/4/7 223/4/7
f 223/4/7 135/4/7 20/4/7
f 179/4/7 21/4/7 61/4/7
f 61/4/7 219/4/7 179/4/7
f 61/4/7 135/4/7 229/4/7
f 229/4/7 232/4/7 61/4/7
f 191/4/7 194/4/7 205/4/7
f 205/4/7 66/4/7 191/4/7
f 205/4/7 213/4/7 245/4/7
f 245/4/7 243/4/7 205/4/7
f 199/4/7 66/4/7 67/4/7
f 67/4/7 239/4/7 199/4/7
f 67/4/7 243/4/7 251/4/7
f 251/4/7 254/4/7 67/4/7
f 17/2/7 19/2/7 83/2/7
f 83/2/7 134/2/7 17/2/7
f 63/2/7 134/2/7 207/2/7
f 207/2/7 70/2/7 63/2/7
f 7/2/7 102/2/7 101/2/7
f 101/2/7 6/2/7 7/2/7
f 15/4/7 14/4/7 82/4/7
f 82/4/7 98/4/7 15/4/7
f 15/4/7 98/4/7 103/4/7
f 103/4/7 139/4/7 15/4/7
f 104/4/7 143/4/7 142/4/7
f 142/4/7 105/4/7 104/4/7
f 85/4/7 143/4/7 36/4/7
f 36/4/7 35/4/7 85/4/7
f 36/4/7 38/4/7 107/4/7
f 107/4/7 40/4/7 36/4/7
f 40/4/7 107/4/7 86/4/7
f 86/4/7 44/4/7 40/4/7
f 10/2/7 16/2/7 138/2/7
f 138/2/7 137/2/7 10/2/7
f 71/2/7 137/2/7 209/2/7
f 209/2/7 77/2/7 71/2/7
f 52/2/1 141/2/1 138/2/1
f 138/2/1 51/2/1 52/2/1
f 3/2/1 37/2/1 144/2/1
f 144/2/1 1/2/1 3/2/1
f 165/9/7 114/8/7 50/8/7
f 50/8/7 155/9/7 165/9/7
f 175/4/33 178/4/33 188/4/34
f 188/4/34 184/4/35 175/4/33
f 188/4/34 190/4/36 226/4/36
f 226/4/36 228/4/37 188/4/34
f 182/4/38 184/4/35 220/4/39
f 220/4/39 222/4/38 182/4/38
f 220/4/39 228/4/37 233/4/40
f 233/4/40 236/4/40 220/4/39
f 228/10/37 220/10/39 184/10/35
f 184/10/35 188/10/34 228/10/37
f 195/4/33 198/4/33 214/4/34
f 214/4/34 204/4/35 195/4/33
f 214/4/34 216/4/36 248/4/36
f 248/4/36 250/4/37 214/4/34
f 202/4/38 204/4/35 240/4/39
f 240/4/39 242/4/38 202/4/38
f 240/4/39 250/4/37 255/4/40
f 255/4/40 258/4/40 240/4/39
f 250/10/37 240/10/39 204/10/35
f 204/10/35 214/10/34 250/10/37
f 217/4/3 181/4/3 179/4/3
f 179/4/3 219/4/3 217/4/3
f 237/4/3 201/4/3 199/4/3
f 199/4/3 239/4/3 237/4/3
f 221/4/3 183/4/3 182/4/3
f 182/4/3 222/4/3 221/4/3
f 241/4/3 203/4/3 202/4/3
f 202/4/3 242/4/3 241/4/3
f 180/4/3 173/4/3 171/4/3
f 171/4/3 21/4/3 180/4/3
f 230/4/3 218/4/3 61/4/3
f 61/4/3 232/4/3 230/4/3
f 200/4/3 193/4/3 191/4/3
f 191/4/3 66/4/3 200/4/3
f 252/4/3 238/4/3 67/4/3
f 67/4/3 254/4/3 252/4/3
f 11/4/3 177/4/3 175/4/3
f 175/4/3 184/4/3 11/4/3
f 234/4/3 72/4/3 220/4/3
f 220/4/3 236/4/3 234/4/3
f 79/4/3 197/4/3 195/4/3
f 195/4/3 204/4/3 79/4/3
f 256/4/3 80/4/3 240/4/3
f 240/4/3 258/4/3 256/4/3
f 148/2/3 132/2/3 131/2/3
f 131/2/3 147/2/3 148/2/3
f 27/2/3 145/2/3 146/2/3
f 146/2/3 28/2/3 27/2/3
f 142/2/3 139/2/3 138/2/3
f 138/2/3 141/2/3 142/2/3
f 36/2/3 143/2/3 144/2/3
f 144/2/3 37/2/3 36/2/3
f 20/4/5 174/4/5 172/4/5
f 172/4/5 186/4/5 20/4/5
f 229/4/5 135/4/5 224/4/5
f 224/4/5 231/4/5 229/4/5
f 205/4/5 194/4/5 192/4/5
f 192/4/5 212/4/5 205/4/5
f 251/4/5 243/4/5 246/4/5
f 246/4/5 253/4/5 251/4/5
f 133/2/5 18/2/5 20/2/5
f 20/2/5 135/2/5 133/2/5
f 134/2/5 133/2/5 206/2/5
f 206/2/5 207/2/5 134/2/5
f 24/2/5 207/2/5 206/2/5
f 206/2/5 26/2/5 24/2/5
f 243/2/5 26/2/5 206/2/5
f 206/2/5 205/2/5 243/2/5
f 207/2/5 24/2/5 33/2/5
f 33/2/5 208/2/5 207/2/5
f 208/2/5 33/2/5 34/2/5
f 34/2/5 209/2/5 208/2/5
f 209/2/5 34/2/5 244/2/5
f 244/2/5 210/2/5 209/2/5
f 136/2/5 208/2/5 209/2/5
f 209/2/5 137/2/5 136/2/5
f 134/2/5 136/2/5 13/2/5
f 13/2/5 17/2/5 134/2/5
f 10/2/5 137/2/5 140/2/5
f 140/2/5 12/2/5 10/2/5
f 188/4/5 178/4/5 176/4/5
f 176/4/5 12/4/5 188/4/5
f 233/4/5 228/4/5 140/4/5
f 140/4/5 235/4/5 233/4/5
f 214/4/5 198/4/5 196/4/5
f 196/4/5 210/4/5 214/4/5
f 255/4/5 250/4/5 244/4/5
f 244/4/5 257/4/5 255/4/5
f 223/4/5 187/4/5 185/4/5
f 185/4/5 225/4/5 223/4/5
f 245/4/5 213/4/5 211/4/5
f 211/4/5 247/4/5 245/4/5
f 226/4/5 190/4/5 189/4/5
f 189/4/5 227/4/5 226/4/5
f 248/4/5 216/4/5 215/4/5
f 215/4/5 249/4/5 248/4/5
f 92/3/7 108/3/7 259/3/7
f 259/3/7 93/3/7 92/3/7
f 93/3/7 259/3/7 260/3/7
f 260/3/7 94/3/7 93/3/7
f 94/3/7 260/3/7 261/3/7
f 261/3/7 95/3/7 94/3/7
f 95/3/7 261/3/7 116/3/7
f 116/3/7 97/3/7 95/3/7
f 115/11/7 116/11/7 261/11/7
f 261/11/7 262/11/7 115/11/7
f 113/11/7 115/11/7 262/11/7
f 262/11/7 263/11/7 113/11/7
f 262/11/7 261/11/7 260/11/7
f 260/11/7 264/11/7 262/11/7
f 263/11/7 262/11/7 264/11/7
f 264/11/7 265/11/7 263/11/7
f 264/11/7 260/11/7 259/11/7
f 259/11/7 266/11/7 264/11/7
f 265/11/7 264/11/7 266/11/7
f 266/11/7 267/11/7 265/11/7
f 266/11/7 259/11/7 108/11/7
f 108/11/7 109/11/7 266/11/7
f 267/11/7 266/11/7 109/11/7
f 109/11/7 110/11/7 267/11/7
f 112/3/7 113/3/7 263/3/7
f 263/3/7 117/3/7 112/3/7
f 117/3/7 263/3/7 265/3/7
f 265/3/7 118/3/7 117/3/7
f 118/3/7 265/3/7 267/3/7
f 267/3/7 119/3/7 118/3/7
f 119/3/7 267/3/7 110/3/7
f 110/3/7 111/3/7 119/3/7
f 268/6/5 153/6/5 151/6/5
f 151/6/5 162/6/5 268/6/5
f 269/7/5 268/6/5 162/6/5
f 162/6/5 161/7/5 269/7/5
f 270/7/5 269/7/5 161/7/5
f 161/7/5 159/7/5 270/7/5
f 170/7/5 270/7/5 159/7/5
f 159/7/5 160/7/5 170/7/5
f 271/11/5 156/11/5 152/11/5
f 152/11/5 272/11/5 271/11/5
f 272/11/5 152/11/5 153/11/5
f 153/11/5 268/11/5 272/11/5
f 273/11/5 271/11/5 272/11/5
f 272/11/5 274/11/5 273/11/5
f 274/11/5 272/11/5 268/11/5
f 268/11/5 269/11/5 274/11/5
f 275/11/5 273/11/5 274/11/5
f 274/11/5 276/11/5 275/11/5
f 276/11/5 274/11/5 269/11/5
f 269/11/5 270/11/5 276/11/5
f 168/11/5 275/11/5 276/11/5
f 276/11/5 169/11/5 168/11/5
f 169/11/5 276/11/5 270/11/5
f 270/11/5 170/11/5 169/11/5
f 164/6/5 157/6/5 156/6/5
f 156/6/5 271/6/5 164/6/5
f 163/7/5 164/6/5 271/6/5
f 271/6/5 273/7/5 163/7/5
f 166/7/5 163/7/5 273/7/5
f 273/7/5 275/7/5 166/7/5
f 167/7/5 166/7/5 275/7/5
f 275/7/5 168/7/5 167/7/5
f 87/3/1 127/3/1 277/3/1
f 277/3/1 88/3/1 87/3/1
f 89/3/1 88/3/1 277/3/1
f 277/3/1 278/3/1 89/3/1
f 90/3/1 89/3/1 278/3/1
f 278/3/1 279/3/1 90/3/1
f 90/3/1 279/3/1 120/3/1
f 120/3/1 91/3/1 90/3/1
f 121/11/1 120/11/1 279/11/1
f 279/11/1 280/11/1 121/11/1
f 122/11/1 121/11/1 280/11/1
f 280/11/1 281/11/1 122/11/1
f 282/11/1 281/11/1 280/11/1
f 280/11/1 283/11/1 282/11/1
f 283/11/1 280/11/1 279/11/1
f 279/11/1 278/11/1 283/11/1
f 284/11/1 282/11/1 283/11/1
f 283/11/1 285/11/1 284/11/1
f 285/11/1 283/11/1 278/11/1
f 278/11/1 277/11/1 285/11/1
f 285/11/1 277/11/1 127/11/1
f 127/11/1 126/11/1 285/11/1
f 284/11/1 285/11/1 126/11/1
f 126/11/1 124/11/1 284/11/1
f 123/3/1 122/3/1 281/3/1
f 281/3/1 130/3/1 123/3/1
f 129/3/1 130/3/1 281/3/1
f 281/3/1 282/3/1 129/3/1
f 128/3/1 129/3/1 282/3/1
f 282/3/1 284/3/1 128/3/1
f 128/3/1 284/3/1 124/3/1
f 124/3/1 125/3/1 128/3/1

