# ProBuilder 5.2.2
# https://unity3d.com/unity/features/worldbuilding/probuilder
# 2024-05-01 10:32:05 AM

mtllib ./RamMeshBig6.mtl
o RamMeshBig6

g RamMesh
v 0.2 0.2416667 -0.1
v 0.2 0.6 -0.1
v 0.2 0.2416667 -0.2
v -0.2 0.6 0.4066667
v -0.2 0.6 0.1
v -0.1 0.6 0.1
v -0.1 0.6 -0.1
v 0.1 0.6 0.1
v 0.1 0.6 -0.1
v 0.2 0.2 0.3
v 0.3 0.1 0.3
v 0.3 0.2 0.3
v 0.1 0.2 0.3
v 0.1 0.3 0.3
v 0.1 0.4 0.3
v 0.2 0.4 0.3
v -0.1 0.2 0.3
v -0.2 0.2 0.3
v -0.1 0.3 0.3
v -0.3 0.2 0.3
v -0.3 0.1 0.3
v -0.2 0.4 0.3
v -0.1 0.4 0.3
v -0.1 0.2 -0.2
v -0.1 0.3 -0.2
v -0.2 0.2 -0.2
v -0.2 0.4 -0.2
v -0.1 0.4 -0.2
v -0.1999999 0.2416667 -0.2
v -0.1 0.5 -0.2
v -0.1 0.4 -0.3
v -0.2 0.4 -0.3
v 0.1 0.2 -0.2
v 0.2 0.2 -0.2
v 0.1 0.3 -0.2
v 0.1 0.4 -0.2
v 0.2 0.4 -0.2
v 0.1 0.5 -0.2
v 0.2 0.4 -0.3
v 0.1 0.4 -0.3
v -0.1 0.2 -0.3
v -0.2 0.2 -0.3
v -0.1 0.3 -0.3
v 0.1 0.3 -0.3
v 0.2 0.2 -0.3
v 0.1 0.2 -0.3
v 0.1 0.1 -0.2
v 0.1 0.1 -0.3
v 0.2 0.2416667 0.4066667
v 0.2 0.6 0.4066667
v 0.2 0.2416667 0.2
v 0.2 0.2416667 0.1
v 0.2 0.6 0.1
v -0.1999999 0.2416667 0.1
v -0.1999999 0.2416667 0.2
v -0.1999999 0.2416667 0.4066667
v -0.2 0.6 -0.1
v -0.1999999 0.2416667 -0.1
v -0.2 0.6 -0.38
v -0.1999999 0.2416667 -0.38
v -0.3 0.1 0.2
v -0.2 0.1 0.2
v -0.1 0.1 0.2
v -0.2 0.1 -0.1
v -0.2 0.1 -0.2
v -0.3 0.1 -0.1
v -0.3 0.1 -0.2
v -0.2 0.1 -0.4
v 0.1 0.1 0.2
v -0.1 0.1 -0.1
v 0.2 0.1 0.2
v 0.3 0.1 0.2
v 0.1 0.1 -0.1
v -0.1 0.1 -0.2
v -0.1 0.1 -0.3
v 0.2 0.1 -0.4
v 0.2 0.1 -0.1
v 0.2 0.1 -0.2
v 0.3 0.1 -0.1
v 0.3 0.1 -0.2
v -0.1 0.3 0.4
v 0.1 0.3 0.4
v -0.1 0.3 0.2
v -0.1 0.3 -0.4
v 0.1 0.3 0.2
v 0.1 0.3 -0.4
v -0.2999999 0.2416667 -0.38
v -0.2999999 0.2416667 -0.1833333
v -0.2999999 0.2416667 0.01333334
v -0.2999999 0.2416667 0.21
v -0.2999999 0.2416667 0.4066667
v 0.3 0.2416667 0.4066667
v 0.3 0.2416667 0.21
v 0.3 0.2416667 0.01333334
v 0.3 0.2416667 -0.1833333
v 0.2 0.2416667 -0.38
v 0.3 0.2416667 -0.38
v 0.1 0.5 0.4
v -0.1 0.5 0.2
v -0.1 0.5 0.4
v -0.1 0.5 0.1
v -0.1 0.5 -0.1
v 0.1 0.5 0.2
v 0.1 0.5 -0.1
v 0.1 0.5 0.1
v -0.1 0.5 -0.4
v 0.1 0.5 -0.4
v 0.3 0.425 0.4066667
v 0.3 0.4833333 0.4066667
v 0.3 0.5416667 0.4066667
v 0.3 0.6 0.4066667
v 0.3 0.6 -0.38
v 0.3 0.5416667 -0.38
v 0.2 0.6 -0.38
v 0.3 0.4833333 -0.38
v 0.3 0.425 -0.38
v 0.3 0.6 -0.1833333
v 0.3 0.6 0.01333334
v 0.3 0.6 0.21
v -0.3 0.425 0.4066667
v -0.3 0.4833333 0.4066667
v -0.3 0.5416667 0.4066667
v -0.3 0.6 0.4066667
v -0.3 0.5416667 -0.38
v -0.3 0.6 -0.38
v -0.3 0.4833333 -0.38
v -0.3 0.425 -0.38
v -0.3 0.6 -0.1833333
v -0.3 0.6 0.01333334
v -0.3 0.6 0.21
v -0.1 0.4 0.2
v -0.2 0.4 0.2
v -0.2 0.2 0.2
v -0.1 0.2 0.2
v -0.3 0.2 0.2
v 0.1 0.2 0.2
v 0.2 0.2 0.2
v 0.2 0.4 0.2
v 0.1 0.4 0.2
v 0.3 0.2 0.2
v 0.2 0.4 0.1
v 0.1 0.4 0.1
v 0.1 0.4 -0.1
v 0.2 0.4 -0.1
v -0.2 0.4 -0.1
v -0.1 0.4 -0.1
v -0.1 0.4 0.1
v -0.2 0.4 0.1
v -0.2 0.2 -0.4
v 0.2 0.2 -0.4
v -0.1259963 0.7 0.250745
v -2.235174E-08 0.7 0.250745
v -0.06299815 0.7 0.250745
v -0.2 0.601 0.3
v 0.2 0.601 0.3
v 0.0629981 0.7 0.250745
v 0.1259962 0.7 0.250745
v -0.2 0.601 -0.3
v -0.1259963 0.7 -0.1253725
v -0.1259963 0.7 -0.250745
v -0.1259963 0.7 0
v -0.1259963 0.7 0.1253725
v 0.1259962 0.7 0
v 0.1259962 0.7 0.1253725
v 0.2 0.601 -0.3
v 0.1259962 0.7 -0.1253725
v 0.1259962 0.7 -0.250745
v 0.0629981 0.7 -0.250745
v -2.235174E-08 0.7 -0.250745
v -0.06299815 0.7 -0.250745
v -0.3 0.1 0.4
v -0.4 0.2 0.4
v -0.4 0.1 0.4
v -0.3 0.2 0.4
v 0.4 0.1 0.4
v 0.3 0.2 0.4
v 0.3 0.1 0.4
v 0.4 0.2 0.4
v -0.3 0 0.3
v -0.4727273 0.09999999 0.3
v -0.4 0 0.3
v 0.4 0 0.3
v 0.3 0 0.3
v 0.4727272 0.09999999 0.3
v -0.4 0.3 0.3
v -0.4727273 0.2 0.3
v -0.3 0.3 0.3
v 0.4727272 0.2 0.3
v 0.3 0.3 0.3
v 0.4 0.3 0.3
v -0.3 0.1 0
v -0.4 0.2 0
v -0.4 0.1 0
v -0.3 0.2 0
v 0.4 0.1 0
v 0.3 0.2 0
v 0.3 0.1 0
v 0.4 0.2 0
v -0.3 0 -0.1
v -0.4727273 0.09999999 -0.1
v -0.4 0 -0.1
v 0.4 0 -0.1
v 0.3 0 -0.1
v 0.4727272 0.09999999 -0.1
v -0.3 0.2 -0.1
v -0.2 0.2 -0.1
v -0.1 0.2 -0.1
v 0.1 0.2 -0.1
v 0.2 0.2 -0.1
v 0.3 0.2 -0.1
v -0.4 0.3 -0.1
v -0.4727273 0.2 -0.1
v -0.3 0.3 -0.1
v 0.4727272 0.2 -0.1
v 0.3 0.3 -0.1
v 0.4 0.3 -0.1
v -0.4 0 0.2
v -0.4727273 0.09999999 0.2
v -0.3 0 0.2
v 0.4727272 0.09999999 0.2
v 0.3 0 0.2
v 0.4 0 0.2
v -0.3 0.3 0.2
v -0.4727273 0.2 0.2
v -0.4 0.3 0.2
v 0.4 0.3 0.2
v 0.3 0.3 0.2
v 0.4727272 0.2 0.2
v -0.3 0.2 0.1
v -0.4 0.1 0.1
v -0.4 0.2 0.1
v -0.3 0.1 0.1
v 0.4 0.2 0.1
v 0.3 0.1 0.1
v 0.3 0.2 0.1
v 0.4 0.1 0.1
v -0.4 0 -0.2
v -0.4727273 0.09999999 -0.2
v -0.3 0 -0.2
v 0.4727272 0.09999999 -0.2
v 0.3 0 -0.2
v 0.4 0 -0.2
v -0.3 0.2 -0.2
v 0.3 0.2 -0.2
v -0.3 0.3 -0.2
v -0.4727273 0.2 -0.2
v -0.4 0.3 -0.2
v 0.4 0.3 -0.2
v 0.3 0.3 -0.2
v 0.4727272 0.2 -0.2
v -0.3 0.2 -0.3
v -0.4 0.1 -0.3
v -0.4 0.2 -0.3
v -0.3 0.1 -0.3
v 0.4 0.2 -0.3
v 0.3 0.1 -0.3
v 0.3 0.2 -0.3
v 0.4 0.1 -0.3
v 0.3 0.425 0.21
v 0.3 0.425 0.01333334
v 0.3 0.425 -0.1833333
v 0.3 0.4833333 -0.1833333
v 0.3 0.5416667 -0.1833333
v 0.3 0.4833333 0.01333334
v 0.3 0.5416667 0.01333334
v 0.3 0.4833333 0.21
v 0.3 0.5416667 0.21
v -0.06299815 0.7 0.1253725
v -0.06299815 0.7 0
v -0.06299815 0.7 -0.1253725
v 0.0629981 0.7 0.1253725
v -2.235174E-08 0.7 0.1253725
v 0.0629981 0.7 0
v -2.235174E-08 0.7 0
v 0.0629981 0.7 -0.1253725
v -2.235174E-08 0.7 -0.1253725
v -0.3 0.425 -0.1833333
v -0.3 0.425 0.01333334
v -0.3 0.425 0.21
v -0.3 0.4833333 0.21
v -0.3 0.5416667 0.21
v -0.3 0.5416667 0.01333334
v -0.3 0.4833333 0.01333334
v -0.3 0.5416667 -0.1833333
v -0.3 0.4833333 -0.1833333

vt 0.376953 0.5
vt 0.373047 0.5
vt 0.9849381 0.2796609
vt 0.9851494 0.2796609
vt 0.537109 0.5
vt 0.9850839 0.2794786
vt 0.9853778 0.2290501
vt 0.9856141 0.2290501
vt 0.9854369 0.2289325
vt 0.9856141 0.2289325
vt 0.9850838 0.2507584
vt 0.9850838 0.2500094
vt 0.8354428 0.5
vt 0.8433357 0.4875008

vn -1 -2.035459E-07 0
vn 0 -0.9999561 0.009373644
vn 0 -1 0
vn 0 0 1
vn 0 1 0
vn 0 0 -1
vn 1 2.713945E-07 0
vn -0.4945364 -0.869157 0
vn -0.2482479 -0.9686965 0
vn 0.4945364 -0.869157 0
vn 0.2482479 -0.9686965 0
vn -0.36737 0.9300749 0
vn -0.2673667 0.9635949 0
vn 0.3673699 0.9300749 0
vn 0.9325681 0.3609942 0
vn 0 -0.9999219 -0.01249691
vn 0 -0.006247011 -0.9999804
vn 0 0.4454404 0.8953116
vn -0.8009554 0.598724 0
vn 0.800955 0.5987245 0
vn 0 0.4454404 -0.8953116
vn 0 0.9999561 0.009374467
vn 0 0.9999219 -0.01249887
vn -0.808736 0 0.5881718
vn -0.9530342 -0.2141562 0.2141562
vn -0.9530342 0.2141562 0.2141562
vn -0.808736 -0.5881718 0
vn -0.9530342 -0.2141562 -0.2141562
vn -0.8087361 0.5881718 0
vn -0.9530342 0.2141562 -0.2141562
vn -0.808736 0 -0.5881718
vn 0.8087363 0 0.5881714
vn 0.9530343 0.214156 0.214156
vn 0.9530343 -0.214156 0.214156
vn 0.8087364 0.5881712 0
vn 0.9530343 0.2141559 -0.214156
vn 0.8087364 -0.5881714 0
vn 0.9530343 -0.214156 -0.214156
vn 0.8087364 0 -0.5881713

usemtl palette
f 1/1/1 2/1/1 3/1/1
f 4/1/2 5/1/3 6/1/3
f 10/2/4 11/2/4 12/2/4
f 17/2/4 11/2/4 13/2/4
f 11/2/4 17/2/4 18/2/4
f 22/2/4 19/2/4 23/2/4
f 27/2/4 25/2/4 28/2/4
f 29/2/4 30/2/5 27/2/5
f 28/2/6 27/2/5 30/2/5
f 33/2/4 34/2/4 35/2/4
f 37/2/4 36/2/5 3/2/5
f 38/2/6 3/2/5 36/2/5
f 43/2/6 32/2/6 31/2/6
f 44/2/6 45/2/6 46/2/6
f 47/2/1 33/2/1 48/2/1
f 46/2/1 35/2/1 44/2/1
f 49/3/1 50/3/1 51/3/1
f 54/3/7 5/3/7 55/3/7
f 29/3/7 57/3/7 58/3/7
f 21/2/3 61/2/3 62/2/3
f 21/2/3 62/2/3 63/2/3
f 62/2/3 64/2/3 63/2/3
f 64/2/3 65/2/3 63/2/3
f 69/2/3 73/2/3 71/2/3
f 73/2/3 47/2/3 71/2/3
f 48/2/3 76/2/3 77/2/3
f 78/2/3 77/2/3 76/2/3
f 81/5/3 19/5/3 82/5/3
f 19/5/3 83/5/3 82/5/3
f 83/5/3 25/5/3 82/5/3
f 25/5/3 43/5/3 82/5/3
f 29/1/8 87/1/3 60/1/3
f 29/1/8 58/1/3 87/1/3
f 54/1/3 87/1/3 58/1/3
f 89/1/3 88/1/3 55/1/9
f 89/1/3 55/1/9 90/1/3
f 49/1/3 51/1/10 92/1/3
f 51/1/10 52/1/3 92/1/3
f 52/1/3 1/1/3 92/1/3
f 94/1/3 93/1/3 3/1/11
f 95/1/3 94/1/3 3/1/11
f 53/3/3 50/3/2 8/3/3
f 98/5/5 99/5/12 100/5/5
f 98/5/5 101/5/5 99/5/12
f 98/5/5 102/5/5 101/5/5
f 104/5/5 30/5/13 103/5/14
f 105/5/5 104/5/5 103/5/14
f 38/5/15 107/5/5 104/5/5
f 92/3/4 108/3/4 49/3/4
f 108/3/4 109/3/4 49/3/4
f 110/3/4 49/3/4 109/3/4
f 112/4/6 113/4/6 114/3/6
f 59/6/16 9/3/3 57/3/3
f 7/3/3 57/3/3 9/3/3
f 112/6/5 114/6/5 117/4/5
f 91/4/4 56/3/4 120/4/4
f 120/4/4 56/3/4 121/4/4
f 122/4/4 4/3/4 123/4/4
f 124/3/6 125/3/6 59/3/6
f 59/3/6 126/3/6 124/3/6
f 126/3/6 87/3/6 127/3/5
f 125/6/5 128/3/5 59/6/5
f 99/2/4 55/2/5 131/2/5
f 132/2/6 131/2/5 55/2/5
f 83/2/6 134/2/6 133/2/6
f 139/2/6 138/2/6 85/2/6
f 139/2/4 138/2/5 103/2/5
f 51/2/6 103/2/5 138/2/5
f 141/2/4 142/2/5 52/2/5
f 105/2/6 52/2/5 142/2/5
f 143/2/4 144/2/5 104/2/5
f 1/2/6 104/2/5 144/2/5
f 145/2/6 146/2/5 58/2/5
f 102/2/4 58/2/5 146/2/5
f 147/2/6 148/2/5 101/2/5
f 54/2/4 101/2/5 148/2/5
f 26/2/1 42/2/1 65/2/1
f 34/2/7 78/2/7 45/2/7
f 151/7/18 152/7/18 153/7/5
f 152/7/18 151/7/18 154/7/18
f 152/7/18 154/7/18 155/8/18
f 161/9/19 158/9/19 154/7/19
f 157/8/20 163/10/20 164/8/5
f 163/10/20 157/8/20 155/8/20
f 163/10/20 155/8/20 165/10/20
f 169/9/21 165/10/21 158/9/21
f 139/5/7 85/5/7 142/5/7
f 143/5/7 142/5/7 85/5/7
f 6/1/3 7/1/3 9/1/3
f 9/1/3 8/1/3 6/1/3
f 11/2/4 10/2/4 14/2/4
f 14/2/4 13/2/4 11/2/4
f 14/2/4 10/2/4 16/2/4
f 16/2/4 15/2/4 14/2/4
f 19/2/4 22/2/4 18/2/4
f 18/2/4 17/2/4 19/2/4
f 18/2/4 20/2/4 21/2/4
f 21/2/4 11/2/4 18/2/4
f 25/2/4 27/2/4 26/2/4
f 26/2/4 24/2/4 25/2/4
f 28/2/5 31/2/5 32/2/5
f 32/2/5 27/2/5 28/2/5
f 35/2/4 34/2/4 37/2/4
f 37/2/4 36/2/4 35/2/4
f 37/2/5 39/2/5 40/2/5
f 40/2/5 36/2/5 37/2/5
f 42/2/6 32/2/6 43/2/6
f 43/2/6 41/2/6 42/2/6
f 39/2/6 45/2/6 44/2/6
f 44/2/6 40/2/6 39/2/6
f 33/2/1 35/2/1 46/2/1
f 46/2/1 48/2/1 33/2/1
f 51/3/1 50/3/1 53/3/1
f 53/3/1 52/3/1 51/3/1
f 5/3/7 4/4/7 56/4/7
f 56/4/7 55/3/7 5/3/7
f 57/3/7 29/3/7 60/3/7
f 60/3/7 59/3/7 57/3/7
f 64/2/3 66/2/3 67/2/3
f 67/2/3 65/2/3 64/2/3
f 65/2/3 68/2/3 70/2/3
f 70/2/3 63/2/3 65/2/3
f 63/2/3 69/2/3 71/2/3
f 71/2/3 21/2/3 63/2/3
f 21/2/3 71/2/3 72/2/3
f 72/2/3 11/2/3 21/2/3
f 70/2/3 74/2/3 47/2/3
f 47/2/3 73/2/3 70/2/3
f 70/2/3 68/2/3 75/2/3
f 75/2/3 74/2/3 70/2/3
f 47/2/3 48/2/3 77/2/3
f 77/2/3 71/2/3 47/2/3
f 75/2/3 68/2/3 76/2/3
f 76/2/3 48/2/3 75/2/3
f 77/2/3 78/2/3 80/2/3
f 80/2/3 79/2/3 77/2/3
f 43/5/3 84/5/3 14/5/3
f 14/5/3 82/5/3 43/5/3
f 14/5/3 84/5/3 35/5/3
f 35/5/3 85/5/3 14/5/3
f 35/5/3 84/5/3 86/5/3
f 86/5/3 44/5/3 35/5/3
f 54/1/3 55/1/9 88/1/3
f 88/1/3 87/1/3 54/1/3
f 90/1/3 55/1/9 56/1/3
f 56/1/3 91/1/3 90/1/3
f 1/1/3 3/1/11 93/1/3
f 93/1/3 92/1/3 1/1/3
f 3/1/11 96/1/3 97/1/3
f 97/1/3 95/1/3 3/1/11
f 8/3/3 50/3/2 4/3/2
f 4/3/2 6/3/3 8/3/3
f 102/5/5 98/5/5 103/5/14
f 103/5/14 30/5/13 102/5/5
f 30/5/13 104/5/5 107/5/5
f 107/5/5 106/5/5 30/5/13
f 110/3/4 111/3/4 50/3/4
f 50/3/4 49/3/4 110/3/4
f 113/4/6 115/4/6 96/3/6
f 96/3/6 114/3/6 113/4/6
f 115/4/6 116/4/6 97/4/6
f 97/4/6 96/3/6 115/4/6
f 114/3/17 2/3/3 9/3/3
f 9/3/3 59/6/16 114/3/17
f 117/4/5 114/6/5 50/3/5
f 50/3/5 118/4/5 117/4/5
f 118/4/5 50/3/5 111/4/5
f 111/4/5 119/4/5 118/4/5
f 56/3/4 4/3/4 122/4/4
f 122/4/4 121/4/4 56/3/4
f 60/3/6 87/3/6 126/3/6
f 126/3/6 59/3/6 60/3/6
f 128/3/5 129/3/5 4/3/5
f 4/3/5 59/6/5 128/3/5
f 129/3/5 130/3/5 123/3/5
f 123/3/5 4/3/5 129/3/5
f 23/2/5 131/2/5 132/2/5
f 132/2/5 22/2/5 23/2/5
f 132/2/6 131/2/6 83/2/6
f 83/2/6 133/2/6 132/2/6
f 135/2/6 133/2/6 62/2/6
f 62/2/6 61/2/6 135/2/6
f 134/2/6 136/2/6 69/2/6
f 69/2/6 63/2/6 134/2/6
f 136/2/6 85/2/6 138/2/6
f 138/2/6 137/2/6 136/2/6
f 137/2/6 140/2/6 72/2/6
f 72/2/6 71/2/6 137/2/6
f 139/2/5 15/2/5 16/2/5
f 16/2/5 138/2/5 139/2/5
f 1/2/6 104/2/6 9/2/6
f 9/2/6 2/2/6 1/2/6
f 38/2/15 104/2/5 1/2/3
f 1/2/3 3/2/11 38/2/15
f 1/2/3 52/2/3 105/2/5
f 105/2/5 104/2/5 1/2/3
f 105/2/5 103/2/14 51/2/10
f 51/2/10 52/2/3 105/2/5
f 54/2/4 101/2/4 6/2/4
f 6/2/4 5/2/4 54/2/4
f 99/2/12 101/2/5 54/2/3
f 54/2/3 55/2/9 99/2/12
f 54/2/3 58/2/3 102/2/5
f 102/2/5 101/2/5 54/2/3
f 102/2/5 30/2/13 29/2/8
f 29/2/8 58/2/3 102/2/5
f 149/2/1 68/2/1 65/2/1
f 65/2/1 42/2/1 149/2/1
f 42/2/1 26/2/1 27/2/1
f 27/2/1 32/2/1 42/2/1
f 74/2/7 75/2/7 41/2/7
f 41/2/7 24/2/7 74/2/7
f 41/2/7 43/2/7 25/2/7
f 25/2/7 24/2/7 41/2/7
f 150/2/7 45/2/7 78/2/7
f 78/2/7 76/2/7 150/2/7
f 34/2/7 45/2/7 39/2/7
f 39/2/7 37/2/7 34/2/7
f 42/2/5 41/2/5 46/2/5
f 46/2/5 149/2/5 42/2/5
f 149/2/5 46/2/5 45/2/5
f 45/2/5 150/2/5 149/2/5
f 152/7/18 155/8/18 157/8/18
f 157/8/18 156/7/18 152/7/18
f 160/9/19 158/9/19 161/9/19
f 161/9/19 159/9/19 160/9/19
f 161/9/19 154/7/19 151/7/19
f 151/7/19 162/7/19 161/9/19
f 163/10/20 165/10/20 167/10/20
f 167/10/20 166/10/20 163/10/20
f 167/10/21 165/10/21 169/9/21
f 169/9/21 168/9/21 167/10/21
f 169/9/21 158/9/21 160/9/21
f 160/9/21 170/9/21 169/9/21
f 173/5/4 171/5/4 174/5/4
f 174/5/4 172/5/4 173/5/4
f 177/5/4 175/5/4 178/5/4
f 178/5/4 176/5/4 177/5/4
f 81/5/4 82/5/4 98/5/4
f 98/5/4 100/5/4 81/5/4
f 181/5/4 179/5/4 21/5/4
f 21/5/4 180/5/4 181/5/4
f 183/5/4 182/5/4 184/5/4
f 184/5/4 11/5/4 183/5/4
f 186/5/4 20/5/4 187/5/4
f 187/5/4 185/5/4 186/5/4
f 12/5/4 188/5/4 190/5/4
f 190/5/4 189/5/4 12/5/4
f 4/11/2 50/11/2 155/12/22
f 155/12/22 154/12/22 4/11/2
f 105/2/4 52/2/4 53/2/4
f 53/2/4 8/2/4 105/2/4
f 193/5/4 191/5/4 194/5/4
f 194/5/4 192/5/4 193/5/4
f 197/5/4 195/5/4 198/5/4
f 198/5/4 196/5/4 197/5/4
f 201/5/4 199/5/4 66/5/4
f 66/5/4 200/5/4 201/5/4
f 203/5/4 202/5/4 204/5/4
f 204/5/4 79/5/4 203/5/4
f 66/2/4 64/2/4 206/2/4
f 206/2/4 205/2/4 66/2/4
f 70/2/4 73/2/4 208/2/4
f 208/2/4 207/2/4 70/2/4
f 77/2/4 79/2/4 210/2/4
f 210/2/4 209/2/4 77/2/4
f 212/5/4 205/5/4 213/5/4
f 213/5/4 211/5/4 212/5/4
f 210/5/4 214/5/4 216/5/4
f 216/5/4 215/5/4 210/5/4
f 75/2/4 48/2/4 46/2/4
f 46/2/4 41/2/4 75/2/4
f 218/5/6 61/5/6 219/5/6
f 219/5/6 217/5/6 218/5/6
f 72/5/6 220/5/6 222/5/6
f 222/5/6 221/5/6 72/5/6
f 225/5/6 223/5/6 135/5/6
f 135/5/6 224/5/6 225/5/6
f 227/5/6 226/5/6 228/5/6
f 228/5/6 140/5/6 227/5/6
f 231/5/6 229/5/6 232/5/6
f 232/5/6 230/5/6 231/5/6
f 235/5/6 233/5/6 236/5/6
f 236/5/6 234/5/6 235/5/6
f 57/2/6 7/2/6 102/2/6
f 102/2/6 58/2/6 57/2/6
f 238/5/6 67/5/6 239/5/6
f 239/5/6 237/5/6 238/5/6
f 80/5/6 240/5/6 242/5/6
f 242/5/6 241/5/6 80/5/6
f 243/2/6 26/2/6 65/2/6
f 65/2/6 67/2/6 243/2/6
f 24/2/6 33/2/6 47/2/6
f 47/2/6 74/2/6 24/2/6
f 34/2/6 244/2/6 80/2/6
f 80/2/6 78/2/6 34/2/6
f 247/5/6 245/5/6 243/5/6
f 243/5/6 246/5/6 247/5/6
f 249/5/6 248/5/6 250/5/6
f 250/5/6 244/5/6 249/5/6
f 253/5/6 251/5/6 254/5/6
f 254/5/6 252/5/6 253/5/6
f 257/5/6 255/5/6 258/5/6
f 258/5/6 256/5/6 257/5/6
f 158/12/23 165/12/23 114/11/17
f 114/11/17 59/11/16 158/12/23
f 149/2/6 150/2/6 76/2/6
f 76/2/6 68/2/6 149/2/6
f 106/5/6 107/5/6 86/5/6
f 86/5/6 84/5/6 106/5/6
f 173/5/24 172/5/24 186/5/26
f 186/5/26 180/5/25 173/5/24
f 181/5/27 180/5/25 218/5/28
f 218/5/28 217/5/27 181/5/27
f 186/5/26 185/5/29 225/5/29
f 225/5/29 224/5/30 186/5/26
f 218/5/28 224/5/30 231/5/31
f 231/5/31 230/5/31 218/5/28
f 180/13/25 186/13/26 224/13/30
f 224/13/30 218/13/28 180/13/25
f 193/5/24 192/5/24 212/5/26
f 212/5/26 200/5/25 193/5/24
f 201/5/27 200/5/25 238/5/28
f 238/5/28 237/5/27 201/5/27
f 212/5/26 211/5/29 247/5/29
f 247/5/29 246/5/30 212/5/26
f 238/5/28 246/5/30 253/5/31
f 253/5/31 252/5/31 238/5/28
f 200/13/25 212/13/26 246/13/30
f 246/13/30 238/13/28 200/13/25
f 18/2/1 22/2/1 132/2/1
f 132/2/1 133/2/1 18/2/1
f 62/2/1 133/2/1 206/2/1
f 206/2/1 64/2/1 62/2/1
f 132/2/7 55/2/7 54/2/7
f 54/2/7 148/2/7 132/2/7
f 145/2/7 58/2/7 29/2/7
f 29/2/7 27/2/7 145/2/7
f 4/11/1 154/12/1 158/12/1
f 158/12/1 59/11/1 4/11/1
f 81/5/1 100/5/1 23/5/1
f 23/5/1 19/5/1 81/5/1
f 23/5/1 100/5/1 99/5/1
f 99/5/1 131/5/1 23/5/1
f 131/5/1 147/5/1 146/5/1
f 146/5/1 83/5/1 131/5/1
f 83/5/1 146/5/1 28/5/1
f 28/5/1 25/5/1 83/5/1
f 147/5/1 101/5/1 102/5/1
f 102/5/1 146/5/1 147/5/1
f 28/5/1 30/5/1 106/5/1
f 106/5/1 31/5/1 28/5/1
f 31/5/1 106/5/1 84/5/1
f 84/5/1 43/5/1 31/5/1
f 13/2/1 14/2/1 85/2/1
f 85/2/1 136/2/1 13/2/1
f 69/2/1 136/2/1 208/2/1
f 208/2/1 73/2/1 69/2/1
f 105/2/1 8/2/1 9/2/1
f 9/2/1 104/2/1 105/2/1
f 3/3/1 2/3/1 114/4/1
f 114/4/1 96/4/1 3/3/1
f 177/5/1 176/5/1 12/5/1
f 12/5/1 11/5/1 177/5/1
f 183/5/1 11/5/1 72/5/1
f 72/5/1 221/5/1 183/5/1
f 12/5/1 189/5/1 227/5/1
f 227/5/1 140/5/1 12/5/1
f 72/5/1 140/5/1 235/5/1
f 235/5/1 234/5/1 72/5/1
f 197/5/1 196/5/1 210/5/1
f 210/5/1 79/5/1 197/5/1
f 203/5/1 79/5/1 80/5/1
f 80/5/1 241/5/1 203/5/1
f 210/5/1 215/5/1 249/5/1
f 249/5/1 244/5/1 210/5/1
f 80/5/1 244/5/1 257/5/1
f 257/5/1 256/5/1 80/5/1
f 174/5/7 171/5/7 21/5/7
f 21/5/7 20/5/7 174/5/7
f 187/5/7 20/5/7 135/5/7
f 135/5/7 223/5/7 187/5/7
f 21/5/7 179/5/7 219/5/7
f 219/5/7 61/5/7 21/5/7
f 135/5/7 61/5/7 232/5/7
f 232/5/7 229/5/7 135/5/7
f 194/5/7 191/5/7 66/5/7
f 66/5/7 205/5/7 194/5/7
f 213/5/7 205/5/7 243/5/7
f 243/5/7 245/5/7 213/5/7
f 66/5/7 199/5/7 239/5/7
f 239/5/7 67/5/7 66/5/7
f 243/5/7 67/5/7 254/5/7
f 254/5/7 251/5/7 243/5/7
f 19/2/7 17/2/7 134/2/7
f 134/2/7 83/2/7 19/2/7
f 134/2/7 63/2/7 70/2/7
f 70/2/7 207/2/7 134/2/7
f 102/2/7 7/2/7 6/2/7
f 6/2/7 101/2/7 102/2/7
f 14/5/7 15/5/7 98/5/7
f 98/5/7 82/5/7 14/5/7
f 98/5/7 15/5/7 139/5/7
f 139/5/7 103/5/7 98/5/7
f 143/5/7 104/5/7 105/5/7
f 105/5/7 142/5/7 143/5/7
f 143/5/7 85/5/7 35/5/7
f 35/5/7 36/5/7 143/5/7
f 38/5/7 36/5/7 40/5/7
f 40/5/7 107/5/7 38/5/7
f 107/5/7 40/5/7 44/5/7
f 44/5/7 86/5/7 107/5/7
f 16/2/7 10/2/7 137/2/7
f 137/2/7 138/2/7 16/2/7
f 137/2/7 71/2/7 77/2/7
f 77/2/7 209/2/7 137/2/7
f 141/2/1 52/2/1 51/2/1
f 51/2/1 138/2/1 141/2/1
f 37/2/1 3/2/1 1/2/1
f 1/2/1 144/2/1 37/2/1
f 114/11/7 165/12/7 155/12/7
f 155/12/7 50/11/7 114/11/7
f 178/5/32 175/5/32 184/5/34
f 184/5/34 188/5/33 178/5/32
f 190/5/35 188/5/33 228/5/36
f 228/5/36 226/5/35 190/5/35
f 184/5/34 182/5/37 222/5/37
f 222/5/37 220/5/38 184/5/34
f 228/5/36 220/5/38 236/5/39
f 236/5/39 233/5/39 228/5/36
f 220/13/38 228/13/36 188/13/33
f 188/13/33 184/13/34 220/13/38
f 198/5/32 195/5/32 204/5/34
f 204/5/34 214/5/33 198/5/32
f 216/5/35 214/5/33 250/5/36
f 250/5/36 248/5/35 216/5/35
f 204/5/34 202/5/37 242/5/37
f 242/5/37 240/5/38 204/5/34
f 250/5/36 240/5/38 258/5/39
f 258/5/39 255/5/39 250/5/36
f 240/13/38 250/13/36 214/13/33
f 214/13/33 204/13/34 240/13/38
f 181/5/3 217/5/3 219/5/3
f 219/5/3 179/5/3 181/5/3
f 201/5/3 237/5/3 239/5/3
f 239/5/3 199/5/3 201/5/3
f 183/5/3 221/5/3 222/5/3
f 222/5/3 182/5/3 183/5/3
f 203/5/3 241/5/3 242/5/3
f 242/5/3 202/5/3 203/5/3
f 173/5/3 180/5/3 21/5/3
f 21/5/3 171/5/3 173/5/3
f 218/5/3 230/5/3 232/5/3
f 232/5/3 61/5/3 218/5/3
f 193/5/3 200/5/3 66/5/3
f 66/5/3 191/5/3 193/5/3
f 238/5/3 252/5/3 254/5/3
f 254/5/3 67/5/3 238/5/3
f 177/5/3 11/5/3 184/5/3
f 184/5/3 175/5/3 177/5/3
f 72/5/3 234/5/3 236/5/3
f 236/5/3 220/5/3 72/5/3
f 197/5/3 79/5/3 204/5/3
f 204/5/3 195/5/3 197/5/3
f 80/5/3 256/5/3 258/5/3
f 258/5/3 240/5/3 80/5/3
f 132/2/3 148/2/3 147/2/3
f 147/2/3 131/2/3 132/2/3
f 145/2/3 27/2/3 28/2/3
f 28/2/3 146/2/3 145/2/3
f 139/2/3 142/2/3 141/2/3
f 141/2/3 138/2/3 139/2/3
f 143/2/3 36/2/3 37/2/3
f 37/2/3 144/2/3 143/2/3
f 174/5/5 20/5/5 186/5/5
f 186/5/5 172/5/5 174/5/5
f 135/5/5 229/5/5 231/5/5
f 231/5/5 224/5/5 135/5/5
f 194/5/5 205/5/5 212/5/5
f 212/5/5 192/5/5 194/5/5
f 243/5/5 251/5/5 253/5/5
f 253/5/5 246/5/5 243/5/5
f 18/2/5 133/2/5 135/2/5
f 135/2/5 20/2/5 18/2/5
f 133/2/5 134/2/5 207/2/5
f 207/2/5 206/2/5 133/2/5
f 207/2/5 24/2/5 26/2/5
f 26/2/5 206/2/5 207/2/5
f 26/2/5 243/2/5 205/2/5
f 205/2/5 206/2/5 26/2/5
f 24/2/5 207/2/5 208/2/5
f 208/2/5 33/2/5 24/2/5
f 33/2/5 208/2/5 209/2/5
f 209/2/5 34/2/5 33/2/5
f 34/2/5 209/2/5 210/2/5
f 210/2/5 244/2/5 34/2/5
f 208/2/5 136/2/5 137/2/5
f 137/2/5 209/2/5 208/2/5
f 136/2/5 134/2/5 17/2/5
f 17/2/5 13/2/5 136/2/5
f 137/2/5 10/2/5 12/2/5
f 12/2/5 140/2/5 137/2/5
f 178/5/5 188/5/5 12/5/5
f 12/5/5 176/5/5 178/5/5
f 228/5/5 233/5/5 235/5/5
f 235/5/5 140/5/5 228/5/5
f 198/5/5 214/5/5 210/5/5
f 210/5/5 196/5/5 198/5/5
f 250/5/5 255/5/5 257/5/5
f 257/5/5 244/5/5 250/5/5
f 187/5/5 223/5/5 225/5/5
f 225/5/5 185/5/5 187/5/5
f 213/5/5 245/5/5 247/5/5
f 247/5/5 211/5/5 213/5/5
f 190/5/5 226/5/5 227/5/5
f 227/5/5 189/5/5 190/5/5
f 216/5/5 248/5/5 249/5/5
f 249/5/5 215/5/5 216/5/5
f 108/4/7 92/4/7 93/3/7
f 93/3/7 259/3/7 108/4/7
f 259/3/7 93/3/7 94/3/7
f 94/3/7 260/3/7 259/3/7
f 260/3/7 94/3/7 95/3/7
f 95/3/7 261/3/7 260/3/7
f 261/3/7 95/3/7 97/3/7
f 97/3/7 116/3/7 261/3/7
f 116/14/7 115/14/7 262/14/7
f 262/14/7 261/14/7 116/14/7
f 115/14/7 113/14/7 263/14/7
f 263/14/7 262/14/7 115/14/7
f 261/14/7 262/14/7 264/14/7
f 264/14/7 260/14/7 261/14/7
f 262/14/7 263/14/7 265/14/7
f 265/14/7 264/14/7 262/14/7
f 260/14/7 264/14/7 266/14/7
f 266/14/7 259/14/7 260/14/7
f 264/14/7 265/14/7 267/14/7
f 267/14/7 266/14/7 264/14/7
f 259/14/7 266/14/7 109/14/7
f 109/14/7 108/14/7 259/14/7
f 266/14/7 267/14/7 110/14/7
f 110/14/7 109/14/7 266/14/7
f 113/3/7 112/3/7 117/3/7
f 117/3/7 263/3/7 113/3/7
f 263/3/7 117/3/7 118/3/7
f 118/3/7 265/3/7 263/3/7
f 265/3/7 118/3/7 119/3/7
f 119/3/7 267/3/7 265/3/7
f 267/3/7 119/3/7 111/4/7
f 111/4/7 110/4/7 267/3/7
f 153/7/5 268/7/5 162/7/5
f 162/7/5 151/7/5 153/7/5
f 268/7/5 269/9/5 161/9/5
f 161/9/5 162/7/5 268/7/5
f 269/9/5 270/9/5 159/9/5
f 159/9/5 161/9/5 269/9/5
f 270/9/5 170/9/5 160/9/5
f 160/9/5 159/9/5 270/9/5
f 156/14/5 271/14/5 272/14/5
f 272/14/5 152/14/5 156/14/5
f 152/14/5 272/14/5 268/14/5
f 268/14/5 153/14/5 152/14/5
f 271/14/5 273/14/5 274/14/5
f 274/14/5 272/14/5 271/14/5
f 272/14/5 274/14/5 269/14/5
f 269/14/5 268/14/5 272/14/5
f 273/14/5 275/14/5 276/14/5
f 276/14/5 274/14/5 273/14/5
f 274/14/5 276/14/5 270/14/5
f 270/14/5 269/14/5 274/14/5
f 275/14/5 168/14/5 169/14/5
f 169/14/5 276/14/5 275/14/5
f 276/14/5 169/14/5 170/14/5
f 170/14/5 270/14/5 276/14/5
f 157/8/5 164/8/5 271/7/5
f 271/7/5 156/7/5 157/8/5
f 164/8/5 163/10/5 273/9/5
f 273/9/5 271/7/5 164/8/5
f 163/10/5 166/10/5 275/9/5
f 275/9/5 273/9/5 163/10/5
f 166/10/5 167/10/5 168/9/5
f 168/9/5 275/9/5 166/10/5
f 127/4/1 87/4/1 88/3/1
f 88/3/1 277/3/1 127/4/1
f 88/3/1 89/3/1 278/3/1
f 278/3/1 277/3/1 88/3/1
f 89/3/1 90/3/1 279/3/1
f 279/3/1 278/3/1 89/3/1
f 279/3/1 90/3/1 91/3/1
f 91/3/1 120/3/1 279/3/1
f 120/14/1 121/14/1 280/14/1
f 280/14/1 279/14/1 120/14/1
f 121/14/1 122/14/1 281/14/1
f 281/14/1 280/14/1 121/14/1
f 281/14/1 282/14/1 283/14/1
f 283/14/1 280/14/1 281/14/1
f 280/14/1 283/14/1 278/14/1
f 278/14/1 279/14/1 280/14/1
f 282/14/1 284/14/1 285/14/1
f 285/14/1 283/14/1 282/14/1
f 283/14/1 285/14/1 277/14/1
f 277/14/1 278/14/1 283/14/1
f 277/14/1 285/14/1 126/14/1
f 126/14/1 127/14/1 277/14/1
f 285/14/1 284/14/1 124/14/1
f 124/14/1 126/14/1 285/14/1
f 122/3/1 123/3/1 130/3/1
f 130/3/1 281/3/1 122/3/1
f 130/3/1 129/3/1 282/3/1
f 282/3/1 281/3/1 130/3/1
f 129/3/1 128/3/1 284/3/1
f 284/3/1 282/3/1 129/3/1
f 284/3/1 128/3/1 125/4/1
f 125/4/1 124/4/1 284/3/1

