# ProBuilder 5.2.2
# https://unity3d.com/unity/features/worldbuilding/probuilder
# 2024-05-21 8:56:01 AM

mtllib ./SlammerMESH1.mtl
o SlammerMESH1

g default
v -1 0.4 0.3
v -1 0 0.3
v -1 0 -0.3
v -1 0.4 -0.3
v -0.9 0.4 0.5
v -0.9 0 0.5
v -0.9 0 0.3
v -0.9 0.4 0.3
v -0.9 0.4 -0.3
v -0.9 0 -0.3
v -0.9 0 -0.5
v -0.9 0.4 -0.5
v -0.8 0.4 0.7
v -0.8 0 0.7
v -0.8 0 0.5
v -0.8 0.4 0.5
v -0.8 0.4 -0.5
v -0.8 0 -0.5
v -0.8 0 -0.7
v -0.8 0.4 -0.7
v -0.7 0.4 0.8
v -0.7 0 0.8
v -0.7 0 0.7
v -0.7 0.4 0.7
v -0.7 0.4 -0.7
v -0.7 0 -0.7
v -0.7 0 -0.8
v -0.7 0.4 -0.8
v -0.5 0.4 0.9
v -0.5 0 0.9
v -0.5 0 0.8
v -0.5 0.4 0.8
v -0.5 0.4 -0.8
v -0.5 0 -0.8
v -0.5 0 -0.9
v -0.5 0.4 -0.9
v -0.3 0.4 1
v -0.3 0 1
v -0.3 0 0.9
v -0.3 0.4 0.9
v -0.3 0.4 -0.9
v -0.3 0 -0.9
v -0.3 0 -1
v -0.3 0.4 -1
v -0.3 3.8 0.2
v -0.3 0.4 0.2
v -0.3 0.4 -0.2
v -0.3 3.8 -0.2
v -0.2 3.8 0.3
v -0.2 0.4 0.3
v -0.2 0.4 0.2
v -0.2 3.8 0.2
v -0.2 3.8 -0.2
v -0.2 0.4 -0.2
v -0.2 0.4 -0.3
v -0.2 3.8 -0.3
v 0.2 0.4 0.3
v 0.2 3.8 0.3
v 0.2 0.4 0.2
v 0.2 3.8 0.2
v 0.2 0.4 -0.2
v 0.2 3.8 -0.2
v 0.2 0.4 -0.3
v 0.2 3.8 -0.3
v 0.3 0 1
v 0.3 0.4 1
v 0.3 0 0.9
v 0.3 0.4 0.9
v 0.3 0 -0.9
v 0.3 0.4 -0.9
v 0.3 0 -1
v 0.3 0.4 -1
v 0.3 0.4 0.2
v 0.3 3.8 0.2
v 0.3 0.4 -0.2
v 0.3 3.8 -0.2
v 0.5 0 0.9
v 0.5 0.4 0.9
v 0.5 0 0.8
v 0.5 0.4 0.8
v 0.5 0 -0.8
v 0.5 0.4 -0.8
v 0.5 0 -0.9
v 0.5 0.4 -0.9
v 0.7 0 0.8
v 0.7 0.4 0.8
v 0.7 0 0.7
v 0.7 0.4 0.7
v 0.7 0 -0.7
v 0.7 0.4 -0.7
v 0.7 0 -0.8
v 0.7 0.4 -0.8
v 0.8 0 0.7
v 0.8 0.4 0.7
v 0.8 0 0.5
v 0.8 0.4 0.5
v 0.8 0 -0.5
v 0.8 0.4 -0.5
v 0.8 0 -0.7
v 0.8 0.4 -0.7
v 0.9 0 0.5
v 0.9 0.4 0.5
v 0.9 0 0.3
v 0.9 0.4 0.3
v 0.9 0 -0.3
v 0.9 0.4 -0.3
v 0.9 0 -0.5
v 0.9 0.4 -0.5
v 1 0 0.3
v 1 0.4 0.3
v 1 0 -0.3
v 1 0.4 -0.3

vt 0.08999021 0.4965311

vn -1 0 0
vn 1 0 0
vn 0 0 1
vn 0 0 -1
vn 0 -1 0
vn 0 1 0

usemtl palette
f 77/1/5 67/1/5 31/1/5
f 31/1/5 22/1/5 23/1/5
f 85/1/5 79/1/5 23/1/5
f 23/1/5 14/1/5 15/1/5
f 93/1/5 87/1/5 15/1/5
f 15/1/5 6/1/5 7/1/5
f 101/1/5 95/1/5 7/1/5
f 7/1/5 2/1/5 3/1/5
f 109/1/5 105/1/5 111/1/5
f 105/1/5 11/1/5 18/1/5
f 105/1/5 97/1/5 107/1/5
f 97/1/5 19/1/5 26/1/5
f 97/1/5 89/1/5 99/1/5
f 89/1/5 27/1/5 34/1/5
f 89/1/5 81/1/5 91/1/5
f 81/1/5 35/1/5 42/1/5
f 78/1/6 32/1/6 68/1/6
f 32/1/6 24/1/6 21/1/6
f 86/1/6 24/1/6 80/1/6
f 24/1/6 16/1/6 13/1/6
f 94/1/6 16/1/6 88/1/6
f 16/1/6 8/1/6 5/1/6
f 102/1/6 8/1/6 96/1/6
f 8/1/6 46/1/6 1/1/6
f 63/1/6 12/1/6 55/1/6
f 75/1/6 63/1/6 61/1/6
f 110/1/6 112/1/6 106/1/6
f 106/1/6 17/1/6 12/1/6
f 106/1/6 108/1/6 98/1/6
f 98/1/6 25/1/6 20/1/6
f 98/1/6 100/1/6 90/1/6
f 90/1/6 33/1/6 28/1/6
f 90/1/6 92/1/6 82/1/6
f 82/1/6 41/1/6 36/1/6
f 3/1/1 2/1/1 1/1/1
f 1/1/1 4/1/1 3/1/1
f 7/1/1 6/1/1 5/1/1
f 5/1/1 8/1/1 7/1/1
f 11/1/1 10/1/1 9/1/1
f 9/1/1 12/1/1 11/1/1
f 15/1/1 14/1/1 13/1/1
f 13/1/1 16/1/1 15/1/1
f 19/1/1 18/1/1 17/1/1
f 17/1/1 20/1/1 19/1/1
f 23/1/1 22/1/1 21/1/1
f 21/1/1 24/1/1 23/1/1
f 27/1/1 26/1/1 25/1/1
f 25/1/1 28/1/1 27/1/1
f 31/1/1 30/1/1 29/1/1
f 29/1/1 32/1/1 31/1/1
f 35/1/1 34/1/1 33/1/1
f 33/1/1 36/1/1 35/1/1
f 39/1/1 38/1/1 37/1/1
f 37/1/1 40/1/1 39/1/1
f 43/1/1 42/1/1 41/1/1
f 41/1/1 44/1/1 43/1/1
f 47/1/1 46/1/1 45/1/1
f 45/1/1 48/1/1 47/1/1
f 51/1/1 50/1/1 49/1/1
f 49/1/1 52/1/1 51/1/1
f 55/1/1 54/1/1 53/1/1
f 53/1/1 56/1/1 55/1/1
f 60/1/2 58/1/2 57/1/2
f 57/1/2 59/1/2 60/1/2
f 64/1/2 62/1/2 61/1/2
f 61/1/2 63/1/2 64/1/2
f 68/1/2 66/1/2 65/1/2
f 65/1/2 67/1/2 68/1/2
f 72/1/2 70/1/2 69/1/2
f 69/1/2 71/1/2 72/1/2
f 76/1/2 74/1/2 73/1/2
f 73/1/2 75/1/2 76/1/2
f 80/1/2 78/1/2 77/1/2
f 77/1/2 79/1/2 80/1/2
f 84/1/2 82/1/2 81/1/2
f 81/1/2 83/1/2 84/1/2
f 88/1/2 86/1/2 85/1/2
f 85/1/2 87/1/2 88/1/2
f 92/1/2 90/1/2 89/1/2
f 89/1/2 91/1/2 92/1/2
f 96/1/2 94/1/2 93/1/2
f 93/1/2 95/1/2 96/1/2
f 100/1/2 98/1/2 97/1/2
f 97/1/2 99/1/2 100/1/2
f 104/1/2 102/1/2 101/1/2
f 101/1/2 103/1/2 104/1/2
f 108/1/2 106/1/2 105/1/2
f 105/1/2 107/1/2 108/1/2
f 112/1/2 110/1/2 109/1/2
f 109/1/2 111/1/2 112/1/2
f 37/1/3 38/1/3 65/1/3
f 65/1/3 66/1/3 37/1/3
f 29/1/3 30/1/3 39/1/3
f 39/1/3 40/1/3 29/1/3
f 68/1/3 67/1/3 77/1/3
f 77/1/3 78/1/3 68/1/3
f 21/1/3 22/1/3 31/1/3
f 31/1/3 32/1/3 21/1/3
f 80/1/3 79/1/3 85/1/3
f 85/1/3 86/1/3 80/1/3
f 13/1/3 14/1/3 23/1/3
f 23/1/3 24/1/3 13/1/3
f 88/1/3 87/1/3 93/1/3
f 93/1/3 94/1/3 88/1/3
f 5/1/3 6/1/3 15/1/3
f 15/1/3 16/1/3 5/1/3
f 96/1/3 95/1/3 101/1/3
f 101/1/3 102/1/3 96/1/3
f 1/1/3 2/1/3 7/1/3
f 7/1/3 8/1/3 1/1/3
f 49/1/3 50/1/3 57/1/3
f 57/1/3 58/1/3 49/1/3
f 104/1/3 103/1/3 109/1/3
f 109/1/3 110/1/3 104/1/3
f 45/1/3 46/1/3 51/1/3
f 51/1/3 52/1/3 45/1/3
f 60/1/3 59/1/3 73/1/3
f 73/1/3 74/1/3 60/1/3
f 53/1/4 54/1/4 47/1/4
f 47/1/4 48/1/4 53/1/4
f 76/1/4 75/1/4 61/1/4
f 61/1/4 62/1/4 76/1/4
f 9/1/4 10/1/4 3/1/4
f 3/1/4 4/1/4 9/1/4
f 64/1/4 63/1/4 55/1/4
f 55/1/4 56/1/4 64/1/4
f 112/1/4 111/1/4 105/1/4
f 105/1/4 106/1/4 112/1/4
f 17/1/4 18/1/4 11/1/4
f 11/1/4 12/1/4 17/1/4
f 108/1/4 107/1/4 97/1/4
f 97/1/4 98/1/4 108/1/4
f 25/1/4 26/1/4 19/1/4
f 19/1/4 20/1/4 25/1/4
f 100/1/4 99/1/4 89/1/4
f 89/1/4 90/1/4 100/1/4
f 33/1/4 34/1/4 27/1/4
f 27/1/4 28/1/4 33/1/4
f 92/1/4 91/1/4 81/1/4
f 81/1/4 82/1/4 92/1/4
f 41/1/4 42/1/4 35/1/4
f 35/1/4 36/1/4 41/1/4
f 84/1/4 83/1/4 69/1/4
f 69/1/4 70/1/4 84/1/4
f 72/1/4 71/1/4 43/1/4
f 43/1/4 44/1/4 72/1/4
f 65/1/5 38/1/5 39/1/5
f 39/1/5 67/1/5 65/1/5
f 31/1/5 67/1/5 39/1/5
f 39/1/5 30/1/5 31/1/5
f 79/1/5 77/1/5 31/1/5
f 31/1/5 23/1/5 79/1/5
f 87/1/5 85/1/5 23/1/5
f 23/1/5 15/1/5 87/1/5
f 95/1/5 93/1/5 15/1/5
f 15/1/5 7/1/5 95/1/5
f 103/1/5 101/1/5 7/1/5
f 7/1/5 3/1/5 103/1/5
f 109/1/5 103/1/5 3/1/5
f 3/1/5 10/1/5 109/1/5
f 105/1/5 109/1/5 10/1/5
f 10/1/5 11/1/5 105/1/5
f 97/1/5 105/1/5 18/1/5
f 18/1/5 19/1/5 97/1/5
f 89/1/5 97/1/5 26/1/5
f 26/1/5 27/1/5 89/1/5
f 81/1/5 89/1/5 34/1/5
f 34/1/5 35/1/5 81/1/5
f 81/1/5 42/1/5 69/1/5
f 69/1/5 83/1/5 81/1/5
f 69/1/5 42/1/5 43/1/5
f 43/1/5 71/1/5 69/1/5
f 68/1/6 40/1/6 37/1/6
f 37/1/6 66/1/6 68/1/6
f 40/1/6 68/1/6 32/1/6
f 32/1/6 29/1/6 40/1/6
f 32/1/6 78/1/6 80/1/6
f 80/1/6 24/1/6 32/1/6
f 24/1/6 86/1/6 88/1/6
f 88/1/6 16/1/6 24/1/6
f 16/1/6 94/1/6 96/1/6
f 96/1/6 8/1/6 16/1/6
f 57/1/6 50/1/6 8/1/6
f 8/1/6 102/1/6 57/1/6
f 57/1/6 102/1/6 104/1/6
f 104/1/6 59/1/6 57/1/6
f 73/1/6 59/1/6 104/1/6
f 104/1/6 110/1/6 73/1/6
f 106/1/6 75/1/6 73/1/6
f 73/1/6 110/1/6 106/1/6
f 51/1/6 46/1/6 8/1/6
f 8/1/6 50/1/6 51/1/6
f 1/1/6 46/1/6 47/1/6
f 47/1/6 4/1/6 1/1/6
f 9/1/6 4/1/6 47/1/6
f 47/1/6 54/1/6 9/1/6
f 9/1/6 54/1/6 55/1/6
f 55/1/6 12/1/6 9/1/6
f 63/1/6 75/1/6 106/1/6
f 106/1/6 12/1/6 63/1/6
f 17/1/6 106/1/6 98/1/6
f 98/1/6 20/1/6 17/1/6
f 25/1/6 98/1/6 90/1/6
f 90/1/6 28/1/6 25/1/6
f 33/1/6 90/1/6 82/1/6
f 82/1/6 36/1/6 33/1/6
f 84/1/6 70/1/6 41/1/6
f 41/1/6 82/1/6 84/1/6
f 72/1/6 44/1/6 41/1/6
f 41/1/6 70/1/6 72/1/6
f 60/1/6 52/1/6 49/1/6
f 49/1/6 58/1/6 60/1/6
f 52/1/6 60/1/6 48/1/6
f 48/1/6 45/1/6 52/1/6
f 53/1/6 48/1/6 60/1/6
f 60/1/6 74/1/6 53/1/6
f 76/1/6 62/1/6 53/1/6
f 53/1/6 74/1/6 76/1/6
f 64/1/6 56/1/6 53/1/6
f 53/1/6 62/1/6 64/1/6

